<?xml version="1.0" encoding="utf-8"?>
<!-- Generator: Adobe Illustrator 21.0.0, SVG Export Plug-In . SVG Version: 6.00 Build 0)  -->
<svg version="1.1" id="Experts_circle" xmlns="http://www.w3.org/2000/svg" xmlns:xlink="http://www.w3.org/1999/xlink" x="0px"
	 y="0px" viewBox="0 0 34.4 34.4" style="enable-background:new 0 0 34.4 34.4;" xml:space="preserve">
<style type="text/css">
	.st0{fill:none;stroke:#FFFFFF;stroke-miterlimit:10;}
</style>
<title>GTS-Iconography-ExpertsCircle</title>
<g>
	<path class="st0" d="M31.7,24.9c-2.8,5.2-8.2,8.7-14.5,8.7c-6.6,0-12.3-3.9-14.9-9.6l-0.2-0.5c1.6-0.6,5.5-1.8,5.7-1.9
		c0-0.4,0-0.8,0-1.2c0-0.3,0-0.2-0.3-0.9S7.3,18.2,7.1,18c-0.5-0.7-0.7-1.4-0.8-2.2c-0.1-1.1,0.2-1,0.2-1.4c0-0.6-0.1-1.2-0.2-2.1
		c0-0.7,0.3-1.4,0.7-2C7.8,9.4,8.9,9,10,9h0.4c1.1,0,2.2,0.4,3,1.3c0.4,0.6,0.7,1.3,0.7,2c0,0.9-0.1,1.5-0.2,2.1
		c0,0.4,0.3,0.3,0.2,1.4c-0.1,0.8-0.3,1.6-0.8,2.2c-0.2,0.2-0.1,0.9-0.4,1.5s-0.3,0.6-0.3,0.9c0,0.4,0,0.8,0,1.2
		c0.2,0,3.3,0.9,4.7,1.4l0,0l1.9-0.7c0-0.5,0-1,0-1.5c0-0.4,0.1-0.3-0.3-1.2s-0.2-1.6-0.5-1.9c-0.6-0.8-0.9-1.7-1-2.7
		c-0.1-1.3,0.2-1.2,0.2-1.7c-0.1-0.7-0.2-1.5-0.3-2.6c0-0.9,0.3-1.8,0.9-2.5c0.9-1.1,2.3-1.6,3.7-1.6h0.3c1.4,0,2.8,0.5,3.7,1.6
		c0.6,0.7,0.9,1.6,0.9,2.5c-0.1,1.1-0.2,1.9-0.3,2.6c-0.1,0.5,0.3,0.4,0.2,1.7c-0.1,1-0.4,1.9-1,2.7c-0.3,0.3-0.2,1.1-0.5,1.9
		s-0.3,0.8-0.3,1.2c0,0.5,0,1,0,1.5c0.3,0.1,3.6,1.4,5.5,2L31.7,24.9z"/>
	<path class="st0" d="M2,23.3l-0.4-1c-0.5-1.6-0.8-3.3-0.8-5.1c0-9.1,7.3-16.4,16.4-16.4s16.4,7.3,16.4,16.4c0,2.4-0.5,4.6-1.4,6.6
		l-0.4,0.9"/>
</g>
</svg>
