<svg xmlns="http://www.w3.org/2000/svg" xmlns:xlink="http://www.w3.org/1999/xlink" viewBox="0 0 88.995 87.326">
  <defs>
    <style>
      .cls-1 {
        fill: url(#linear-gradient);
      }

      .cls-2 {
        fill: #1b213e;
      }
    </style>
    <linearGradient id="linear-gradient" x1="0.5" x2="0.5" y2="1" gradientUnits="objectBoundingBox">
      <stop offset="0" stop-color="#2765ff"/>
      <stop offset="1" stop-color="#17d7ff"/>
    </linearGradient>
  </defs>
  <g id="Group_28" data-name="Group 28" transform="translate(0 0)">
    <g id="Group_27" data-name="Group 27">
      <path id="Path_158" data-name="Path 158" class="cls-1" d="M138.469,44.834A21.128,21.128,0,1,0,117.16,23.707,21.243,21.243,0,0,0,138.469,44.834Zm0-39.437A18.311,18.311,0,1,1,120,23.707,18.411,18.411,0,0,1,138.469,5.4Z" transform="translate(-96.355 -2.58)"/>
      <path id="Path_159" data-name="Path 159" class="cls-1" d="M200,66.58V69.4H197.16V83.482H200V86.3h2.841V83.482h2.841V86.3h2.841V83.223a4.189,4.189,0,0,0,1.753-6.783,4.189,4.189,0,0,0-1.753-6.783V66.58h-2.841V69.4h-2.841V66.58Zm7.1,14.085H200V77.848h7.1a1.409,1.409,0,1,1,0,2.817Zm0-8.451a1.409,1.409,0,1,1,0,2.817H200V72.214Z" transform="translate(-162.149 -55.312)"/>
      <path id="Path_160" data-name="Path 160" class="cls-1" d="M154.888,58.092a12.651,12.651,0,0,1,9.9-20.695,12.871,12.871,0,0,1,8.088,2.862l1.8-2.179a15.742,15.742,0,0,0-9.889-3.5,15.464,15.464,0,0,0-12.1,25.3Z" transform="translate(-122.673 -28.946)"/>
      <path id="Path_161" data-name="Path 161" class="cls-1" d="M191.361,89.373a12.871,12.871,0,0,1-8.088-2.862l-1.8,2.179a15.742,15.742,0,0,0,9.889,3.5,15.464,15.464,0,0,0,12.1-25.3l-2.2,1.786a12.651,12.651,0,0,1-9.9,20.695Z" transform="translate(-149.247 -55.569)"/>
      <path id="Path_162" data-name="Path 162" class="cls-2" d="M244.041,50.58H225.572V53.4h18.468a4.249,4.249,0,0,1,4.262,4.225v64.79a4.249,4.249,0,0,1-4.262,4.225H218.469V87.2h-2.841v39.437h-7.1V87.2h-2.841v39.437h-1.421A4.249,4.249,0,0,1,200,122.412V87.2H197.16v35.212a7.081,7.081,0,0,0,7.1,7.042h39.777a7.081,7.081,0,0,0,7.1-7.042V57.622A7.081,7.081,0,0,0,244.041,50.58Z" transform="translate(-162.149 -42.129)"/>
      <path id="Path_163" data-name="Path 163" class="cls-1" d="M381.684,347.933a8.5,8.5,0,0,0,8.524-8.451,8.337,8.337,0,0,0-1.154-4.225,8.337,8.337,0,0,0,1.154-4.225,8.524,8.524,0,0,0-17.047,0,8.337,8.337,0,0,0,1.154,4.225,8.337,8.337,0,0,0-1.154,4.225A8.5,8.5,0,0,0,381.684,347.933Zm0-22.536a5.664,5.664,0,0,1,5.683,5.634,5.535,5.535,0,0,1-.347,1.87,8.546,8.546,0,0,0-10.672,0,5.534,5.534,0,0,1-.347-1.87A5.664,5.664,0,0,1,381.684,325.4Zm3.719,9.859a5.615,5.615,0,0,1-7.438,0,5.615,5.615,0,0,1,7.438,0Zm-9.055,2.355a8.546,8.546,0,0,0,10.672,0,5.535,5.535,0,0,1,.347,1.87,5.683,5.683,0,0,1-11.365,0A5.534,5.534,0,0,1,376.348,337.611Z" transform="translate(-306.895 -266.241)"/>
      <rect id="Rectangle_68" data-name="Rectangle 68" class="cls-2" width="2.841" height="2.817" transform="translate(15.123 5.634)"/>
      <path id="Path_164" data-name="Path 164" class="cls-2" d="M27.908,123.857,7.515,106.017H17.964V66.58H15.123V103.2H0l27.908,24.415,5.2-4.551-1.881-2.113Z" transform="translate(0 -55.312)"/>
      <rect id="Rectangle_69" data-name="Rectangle 69" class="cls-2" width="2.841" height="2.817" transform="translate(15.123)"/>
    </g>
  </g>
</svg>
