<svg id="_023-bitcoin-7" data-name="023-bitcoin-7" xmlns="http://www.w3.org/2000/svg" xmlns:xlink="http://www.w3.org/1999/xlink" viewBox="0 0 76 76">
  <defs>
    <style>
      .cls-1 {
        fill: url(#linear-gradient);
      }

      .cls-2 {
        fill: url(#linear-gradient-2);
      }

      .cls-3 {
        fill: #1b213e;
      }
    </style>
    <linearGradient id="linear-gradient" x1="0.5" x2="0.5" y2="0.914" gradientUnits="objectBoundingBox">
      <stop offset="0" stop-color="#2765ff"/>
      <stop offset="1" stop-color="#17d7ff"/>
    </linearGradient>
    <linearGradient id="linear-gradient-2" y1="2.124" y2="0.264" xlink:href="#linear-gradient"/>
  </defs>
  <g id="Group_222" data-name="Group 222">
    <g id="Group_221" data-name="Group 221">
      <path id="Path_456" data-name="Path 456" class="cls-1" d="M156.365,32.8l16.581-5.527L156.365,1.016,139.784,27.27Zm1.226-25.249L169.2,25.934l-11.612,3.871ZM155.14,29.805l-11.612-3.871L155.14,7.548Z" transform="translate(-118.365 -0.86)"/>
      <path id="Path_457" data-name="Path 457" class="cls-2" d="M160.065,192.839v11.032l-12.5-16.671-1.961,1.471,15.69,20.921,15.69-20.921-1.961-1.471-12.5,16.671V192.839Z" transform="translate(-123.29 -158.516)"/>
      <path id="Path_458" data-name="Path 458" class="cls-1" d="M294.432,25.742a20.711,20.711,0,0,1-16.208,20.3l.543,2.392a23.253,23.253,0,0,0,11.773-6.679l3.171,2.7a4.9,4.9,0,1,0,1.583-1.873l-3.174-2.7a23.363,23.363,0,0,0,0-28.278l3.174-2.7a4.9,4.9,0,1,0-2.086-4,4.859,4.859,0,0,0,.506,2.129l-3.171,2.7a23.249,23.249,0,0,0-11.773-6.679l-.543,2.392A20.711,20.711,0,0,1,294.432,25.742Zm3.677,18.387a2.452,2.452,0,1,1-2.452,2.452A2.454,2.454,0,0,1,298.109,44.129Zm0-41.677A2.452,2.452,0,1,1,295.657,4.9,2.454,2.454,0,0,1,298.109,2.452Z" transform="translate(-235.593)"/>
      <path id="Path_459" data-name="Path 459" class="cls-3" d="M0,387.677a6.136,6.136,0,0,0,6.129,6.129H24.516v4.9h-4.9v2.452H56.387V398.71h-4.9v-4.9H69.871A6.136,6.136,0,0,0,76,387.677V384H0ZM49.032,398.71H26.968v-4.9H49.032ZM2.452,386.452h71.1v1.226a3.682,3.682,0,0,1-3.677,3.677H6.129a3.682,3.682,0,0,1-3.677-3.677Z" transform="translate(0 -325.161)"/>
      <path id="Path_460" data-name="Path 460" class="cls-3" d="M401.806,80H392v2.452h9.806a3.682,3.682,0,0,1,3.677,3.677v38h2.452v-38A6.136,6.136,0,0,0,401.806,80Z" transform="translate(-331.935 -67.742)"/>
      <path id="Path_461" data-name="Path 461" class="cls-3" d="M2.452,86.129a3.682,3.682,0,0,1,3.677-3.677h9.806V80H6.129A6.136,6.136,0,0,0,0,86.129v38H2.452Z" transform="translate(0 -67.742)"/>
      <path id="Path_462" data-name="Path 462" class="cls-1" d="M60.9,9.806a4.87,4.87,0,0,0,2.816-.9l3.174,2.7a23.363,23.363,0,0,0,0,28.278l-3.174,2.7a5,5,0,1,0,1.58,1.872l3.171-2.7a23.249,23.249,0,0,0,11.773,6.679l.543-2.392a20.819,20.819,0,0,1,0-40.6l-.543-2.392A23.253,23.253,0,0,0,68.473,9.728L65.3,7.032a4.892,4.892,0,1,0-4.4,2.774Zm0,39.226a2.452,2.452,0,1,1,2.452-2.452A2.454,2.454,0,0,1,60.9,49.032Zm0-46.581A2.452,2.452,0,1,1,58.452,4.9,2.454,2.454,0,0,1,60.9,2.452Z" transform="translate(-47.419)"/>
    </g>
  </g>
</svg>
