<svg xmlns="http://www.w3.org/2000/svg" xmlns:xlink="http://www.w3.org/1999/xlink" viewBox="0 0 90.747 90.749">
  <defs>
    <style>
      .cls-1 {
        fill: #1b213e;
      }

      .cls-2 {
        fill: url(#linear-gradient);
      }

      .cls-3 {
        fill: url(#linear-gradient-2);
      }
    </style>
    <linearGradient id="linear-gradient" x1="0.5" x2="0.5" y2="1" gradientUnits="objectBoundingBox">
      <stop offset="0" stop-color="#2765ff"/>
      <stop offset="1" stop-color="#17d7ff"/>
    </linearGradient>
    <linearGradient id="linear-gradient-2" x2="0.439" y2="1.207" xlink:href="#linear-gradient"/>
  </defs>
  <g id="_026-bitcoin-4" data-name="026-bitcoin-4" transform="translate(-0.006)">
    <g id="Group_224" data-name="Group 224" transform="translate(0.006 0)">
      <g id="Group_223" data-name="Group 223" transform="translate(0 0)">
        <rect id="Rectangle_356" data-name="Rectangle 356" class="cls-1" width="23.42" height="2.927" transform="translate(33.664 65.867)"/>
        <path id="Path_463" data-name="Path 463" class="cls-1" d="M357,230.935l-4.22-4.223a5.936,5.936,0,0,0-7.222-.89l-2.3-2.3a5.886,5.886,0,0,0-.89-7.222l-1.616-1.616-2.07,2.07,1.616,1.616a3,3,0,0,1,.755,2.947l-1.765-1.765-2.07,2.07,1.767,1.767a3,3,0,0,1-2.946-.755l-3.522-3.522a4.389,4.389,0,0,0,4.271-4.38V183.988h-2.927V210.36a5.866,5.866,0,0,0-4.116,1.715,5.948,5.948,0,0,0,0,8.4l4.221,4.221a5.886,5.886,0,0,0,7.222.89l2.3,2.3a5.939,5.939,0,0,0,.89,7.222l4.221,4.221a5.94,5.94,0,0,0,8.4-8.4ZM330.94,216.191a3,3,0,0,1,.872-2.045,2.946,2.946,0,0,1,2.046-.846v1.427a1.464,1.464,0,0,1-1.464,1.464Zm23.992,21.074a3.014,3.014,0,0,1-4.261,0l-4.221-4.221a3,3,0,0,1-.755-2.947l1.765,1.765,2.07-2.07-1.765-1.765a3.042,3.042,0,0,1,.815-.126,3,3,0,0,1,2.131.881L354.932,233A3.015,3.015,0,0,1,354.932,237.264Z" transform="translate(-267.992 -150.324)"/>
        <path id="Path_464" data-name="Path 464" class="cls-2" d="M5.971,14.36a5.893,5.893,0,0,0,7.221.891l2.3,2.3a5.886,5.886,0,0,0,.89,7.222L20.607,29a5.914,5.914,0,0,0,10.115-4.116H60.047A5.924,5.924,0,0,0,70.162,29l4.221-4.221a5.884,5.884,0,0,0,.893-7.224l2.3-2.3a5.893,5.893,0,0,0,7.221-.891l4.221-4.221a5.94,5.94,0,1,0-8.4-8.4L76.4,5.958a5.937,5.937,0,0,0-.89,7.222l-2.3,2.3a5.886,5.886,0,0,0-7.222.89L64.368,17.99l2.07,2.07,1.616-1.616A3,3,0,0,1,71,17.689l-1.765,1.765,2.07,2.07,1.765-1.765a3,3,0,0,1-.755,2.947l-3.522,3.522a4.387,4.387,0,0,0-4.378-4.273H26.358a4.389,4.389,0,0,0-4.38,4.273L18.457,22.7a3,3,0,0,1-.755-2.947l1.765,1.765,2.07-2.07-1.765-1.765a3,3,0,0,1,2.947.755l1.616,1.616,2.07-2.07-1.616-1.616a5.884,5.884,0,0,0-7.221-.89l-2.3-2.3a5.939,5.939,0,0,0-.89-7.222L10.151,1.737a5.94,5.94,0,0,0-8.4,8.4Zm72.5-6.332,4.221-4.221a3.013,3.013,0,0,1,4.261,4.261l-4.221,4.221a3,3,0,0,1-2.947.755l1.765-1.765-2.07-2.07-1.765,1.765A3,3,0,0,1,78.472,8.028ZM64.415,24.882a1.464,1.464,0,0,1,1.464,1.464V27.8a2.99,2.99,0,0,1-2.045-.874,2.954,2.954,0,0,1-.847-2.045ZM24.894,26.345a1.464,1.464,0,0,1,1.464-1.464h1.429a2.952,2.952,0,0,1-.848,2.045,2.993,2.993,0,0,1-2.045.874ZM3.82,3.808a3.016,3.016,0,0,1,4.261,0L12.3,8.029a3,3,0,0,1,.755,2.947L11.291,9.209l-2.07,2.07,1.767,1.767a3,3,0,0,1-2.947-.755L3.82,8.069A3.015,3.015,0,0,1,3.82,3.808Z" transform="translate(-0.013 0)"/>
        <path id="Path_465" data-name="Path 465" class="cls-3" d="M210.921,191.988v2.927h-2.927v14.638h2.927v2.927h2.927v-2.927h2.928v2.927H219.7v-3.2a4.372,4.372,0,0,0,1.806-7.049,4.371,4.371,0,0,0-1.806-7.049v-3.2h-2.927v2.927h-2.927v-2.927Zm7.319,14.638h-7.319V203.7h7.319a1.464,1.464,0,0,1,0,2.928Zm0-8.783a1.464,1.464,0,0,1,0,2.927h-7.319v-2.927Z" transform="translate(-169.939 -156.86)"/>
        <path id="Path_466" data-name="Path 466" class="cls-3" d="M162.922,176.089a13.17,13.17,0,0,1,21.507-10.2l1.856-2.264a16.1,16.1,0,0,0-22.653,22.653l2.264-1.856A13.192,13.192,0,0,1,162.922,176.089Z" transform="translate(-130.721 -130.715)"/>
        <path id="Path_467" data-name="Path 467" class="cls-3" d="M192.306,214.953A16.1,16.1,0,0,0,214.959,192.3l-2.264,1.856a13.17,13.17,0,0,1-18.533,18.533Z" transform="translate(-157.121 -157.115)"/>
        <path id="Path_468" data-name="Path 468" class="cls-1" d="M24.888,210.36V183.988H21.96v30.739a4.389,4.389,0,0,0,4.273,4.38l-3.522,3.522a3,3,0,0,1-2.947.755l1.765-1.765-2.07-2.07-1.765,1.765a3,3,0,0,1,.755-2.947l1.616-1.616L18,214.681,16.38,216.3a5.884,5.884,0,0,0-.89,7.221l-2.3,2.3a5.937,5.937,0,0,0-7.222.89l-4.221,4.221a5.94,5.94,0,0,0,8.4,8.4l4.221-4.221a5.937,5.937,0,0,0,.89-7.222l2.3-2.3a5.886,5.886,0,0,0,7.222-.89L29,220.475a5.947,5.947,0,0,0,0-8.4A5.867,5.867,0,0,0,24.888,210.36ZM12.295,233.044l-4.221,4.221A3.013,3.013,0,0,1,3.812,233l4.221-4.221a3.006,3.006,0,0,1,2.131-.881,3.043,3.043,0,0,1,.815.126l-1.765,1.765,2.07,2.07L13.05,230.1A3,3,0,0,1,12.295,233.044Zm14.056-16.855a1.462,1.462,0,0,1-1.464-1.462V213.3a2.944,2.944,0,0,1,2.045.846,2.991,2.991,0,0,1,.872,2.045Z" transform="translate(-0.006 -150.324)"/>
      </g>
    </g>
  </g>
</svg>
