<svg id="_008-bitcoin-22" data-name="008-bitcoin-22" xmlns="http://www.w3.org/2000/svg" xmlns:xlink="http://www.w3.org/1999/xlink" viewBox="0 0 95.373 95.373">
  <defs>
    <style>
      .cls-1 {
        fill: #1b213e;
      }

      .cls-2 {
        fill: url(#linear-gradient);
      }

      .cls-3 {
        fill: url(#linear-gradient-3);
      }

      .cls-4 {
        fill: url(#linear-gradient-4);
      }
    </style>
    <linearGradient id="linear-gradient" x1="0.5" x2="0.5" y2="1" gradientUnits="objectBoundingBox">
      <stop offset="0" stop-color="#2765ff"/>
      <stop offset="1" stop-color="#17d7ff"/>
    </linearGradient>
    <linearGradient id="linear-gradient-3" x1="1" y1="0.5" x2="0" y2="0.607" xlink:href="#linear-gradient"/>
    <linearGradient id="linear-gradient-4" x1="1.108" y1="0.561" x2="0" y2="0.5" xlink:href="#linear-gradient"/>
  </defs>
  <g id="Group_226" data-name="Group 226">
    <g id="Group_225" data-name="Group 225">
      <path id="Path_469" data-name="Path 469" class="cls-1" d="M272,295.691a7.7,7.7,0,0,0,7.691,7.691H307.38a7.7,7.7,0,0,0,7.691-7.691V288H272Zm3.077-4.615H312v4.615a4.62,4.62,0,0,1-4.615,4.615H279.691a4.62,4.62,0,0,1-4.615-4.615Z" transform="translate(-219.699 -232.622)"/>
      <path id="Path_470" data-name="Path 470" class="cls-1" d="M307.38,0H279.691A7.7,7.7,0,0,0,272,7.691V52.3h3.077v-40H312v40h3.077V7.691A7.7,7.7,0,0,0,307.38,0ZM312,9.23H275.077V7.691a4.62,4.62,0,0,1,4.615-4.615H307.38A4.62,4.62,0,0,1,312,7.691Z" transform="translate(-219.699 0)"/>
      <rect id="Rectangle_357" data-name="Rectangle 357" class="cls-1" width="9.23" height="3.077" transform="translate(69.223 61.531)"/>
      <path id="Path_471" data-name="Path 471" class="cls-2" d="M346.768,107.689h-3.077a4.62,4.62,0,0,1-4.615-4.615H336a7.7,7.7,0,0,0,7.691,7.691v3.077h3.077v-3.077a7.691,7.691,0,1,0,0-15.383h-3.077a4.615,4.615,0,1,1,0-9.23h3.077a4.62,4.62,0,0,1,4.615,4.615h3.077a7.7,7.7,0,0,0-7.691-7.691V80h-3.077v3.077a7.691,7.691,0,0,0,0,15.383h3.077a4.615,4.615,0,0,1,0,9.23Z" transform="translate(-271.392 -64.617)"/>
      <path id="Path_472" data-name="Path 472" class="cls-1" d="M0,423.691a7.7,7.7,0,0,0,7.691,7.691H35.38a7.7,7.7,0,0,0,7.691-7.691V416H0Zm3.077-4.615H40v4.615a4.62,4.62,0,0,1-4.615,4.615H7.691a4.62,4.62,0,0,1-4.615-4.615Z" transform="translate(0 -336.009)"/>
      <path id="Path_473" data-name="Path 473" class="cls-1" d="M35.38,128H7.691A7.7,7.7,0,0,0,0,135.691V180.3H3.077v-40H40v40h3.077v-44.61A7.7,7.7,0,0,0,35.38,128ZM40,137.23H3.077v-1.538a4.62,4.62,0,0,1,4.615-4.615H35.38A4.62,4.62,0,0,1,40,135.691Z" transform="translate(0 -103.388)"/>
      <rect id="Rectangle_358" data-name="Rectangle 358" class="cls-1" width="9.23" height="3.077" transform="translate(16.921 86.144)"/>
      <path id="Path_474" data-name="Path 474" class="cls-2" d="M67.077,208v3.077H64v27.689h3.077v3.077h3.077v-3.077H73.23v3.077h3.077V238.61a7.689,7.689,0,0,0,3.072-13.689,7.689,7.689,0,0,0-3.072-13.689V208H73.23v3.077H70.153V208Zm12.306,23.074a4.62,4.62,0,0,1-4.615,4.615H67.077v-9.23h7.691A4.62,4.62,0,0,1,79.383,231.074Zm-4.615-16.921a4.615,4.615,0,0,1,0,9.23H67.077v-9.23Z" transform="translate(-51.694 -168.005)"/>
      <path id="Path_475" data-name="Path 475" class="cls-3" d="M133.227,6.153a6.14,6.14,0,0,0-12.088-1.538h-9.448A7.7,7.7,0,0,0,104,12.306v3.077h3.077V12.306a4.62,4.62,0,0,1,4.615-4.615h9.448a6.14,6.14,0,0,0,12.088-1.538ZM127.074,9.23a3.077,3.077,0,1,1,3.077-3.077A3.08,3.08,0,0,1,127.074,9.23Z" transform="translate(-84.002)"/>
      <rect id="Rectangle_359" data-name="Rectangle 359" class="cls-1" width="3.077" height="3.077" transform="translate(19.998 18.459)"/>
      <rect id="Rectangle_360" data-name="Rectangle 360" class="cls-1" width="3.077" height="3.077" transform="translate(72.299 73.837)"/>
      <path id="Path_476" data-name="Path 476" class="cls-4" d="M266.151,419.077a4.62,4.62,0,0,1-4.615,4.615h-9.448a6.153,6.153,0,1,0,0,3.077h9.448a7.7,7.7,0,0,0,7.691-7.691V416h-3.077Zm-20,9.23a3.077,3.077,0,1,1,3.077-3.077A3.08,3.08,0,0,1,246.153,428.306Z" transform="translate(-193.852 -336.009)"/>
    </g>
  </g>
</svg>
