<svg xmlns="http://www.w3.org/2000/svg" xmlns:xlink="http://www.w3.org/1999/xlink" viewBox="0 0 117 117">
  <defs>
    <style>
      .cls-1 {
        fill: url(#linear-gradient);
      }
    </style>
    <linearGradient id="linear-gradient" x1="0.5" x2="0.5" y2="1" gradientUnits="objectBoundingBox">
      <stop offset="0" stop-color="#17d7ff"/>
      <stop offset="1" stop-color="#1f68e7"/>
    </linearGradient>
  </defs>
  <g id="Group_188" data-name="Group 188" transform="translate(-1786 -203)">
    <path id="Subtraction_1" data-name="Subtraction 1" class="cls-1" d="M-530.5,2625a58.132,58.132,0,0,1-22.771-4.6,58.489,58.489,0,0,1-9.937-5.394,58.906,58.906,0,0,1-8.658-7.143,58.909,58.909,0,0,1-7.143-8.658,58.505,58.505,0,0,1-5.394-9.937A58.133,58.133,0,0,1-589,2566.5a58.134,58.134,0,0,1,4.6-22.771,58.5,58.5,0,0,1,5.394-9.937,58.909,58.909,0,0,1,7.143-8.658,58.887,58.887,0,0,1,8.658-7.143,58.494,58.494,0,0,1,9.937-5.394A58.132,58.132,0,0,1-530.5,2508a58.131,58.131,0,0,1,22.771,4.6,58.5,58.5,0,0,1,9.937,5.394,58.893,58.893,0,0,1,8.658,7.143,58.926,58.926,0,0,1,7.143,8.658,58.5,58.5,0,0,1,5.394,9.937A58.133,58.133,0,0,1-472,2566.5a58.132,58.132,0,0,1-4.6,22.771,58.513,58.513,0,0,1-5.394,9.937,58.926,58.926,0,0,1-7.143,8.658,58.91,58.91,0,0,1-8.658,7.143,58.5,58.5,0,0,1-9.937,5.394A58.131,58.131,0,0,1-530.5,2625Zm.5-99a40.737,40.737,0,0,0-15.959,3.222,40.858,40.858,0,0,0-13.032,8.786,40.863,40.863,0,0,0-8.786,13.032A40.744,40.744,0,0,0-571,2567a40.745,40.745,0,0,0,3.222,15.959,40.863,40.863,0,0,0,8.786,13.032,40.855,40.855,0,0,0,13.032,8.787A40.737,40.737,0,0,0-530,2608a40.738,40.738,0,0,0,15.959-3.222,40.857,40.857,0,0,0,13.032-8.787,40.863,40.863,0,0,0,8.787-13.032A40.743,40.743,0,0,0-489,2567a40.743,40.743,0,0,0-3.222-15.959,40.866,40.866,0,0,0-8.787-13.032,40.86,40.86,0,0,0-13.032-8.786A40.739,40.739,0,0,0-530,2526Z" transform="translate(2375 -2305)"/>
  </g>
</svg>
