<svg xmlns="http://www.w3.org/2000/svg" viewBox="0 0 200.384 27.766">
  <defs>
    <style>
      .cls-1, .cls-2, .cls-3, .cls-6 {
        fill: none;
      }

      .cls-1 {
        stroke: #ffbe00;
        stroke-linecap: round;
        stroke-linejoin: round;
        stroke-width: 2px;
        opacity: 0.36;
      }

      .cls-3 {
        stroke: #008cf0;
        stroke-width: 0.5px;
      }

      .cls-4, .cls-5, .cls-7 {
        stroke: none;
      }

      .cls-5 {
        fill: #008cf0;
      }

      .cls-7 {
        fill: #ff7900;
      }
    </style>
  </defs>
  <g id="Group_180" data-name="Group 180" transform="translate(-528.857 -8631.142)">
    <path id="Path_340" data-name="Path 340" class="cls-1" d="M5.6,0S4.535,1.592,2.97,4.1,0,9.255,0,9.255" transform="translate(704.311 8633.479) rotate(64)"/>
    <path id="Path_342" data-name="Path 342" class="cls-1" d="M5.6,0S4.535,1.592,2.97,4.1,0,9.255,0,9.255" transform="translate(681.311 8648.479) rotate(64)"/>
    <path id="Path_350" data-name="Path 350" class="cls-1" d="M5.6,0S4.535,1.592,2.97,4.1,0,9.255,0,9.255" transform="translate(578.311 8634.479) rotate(64)"/>
    <g id="Path_334" data-name="Path 334" class="cls-2" transform="translate(673.012 8634.696) rotate(60)">
      <path class="cls-4" d="M4.229,0A4.229,4.229,0,0,1,8.458,4.229c0,2.336-1.893,8.368-4.229,8.368S0,6.565,0,4.229A4.229,4.229,0,0,1,4.229,0Z"/>
      <path class="cls-5" d="M 4.228969573974609 0.9999780654907227 C 2.448509693145752 0.9999876022338867 0.9999895095825195 2.448517799377441 0.9999794960021973 4.228987693786621 C 0.9999794960021973 5.170747756958008 1.406139373779297 7.126957893371582 2.158869743347168 8.897407531738281 C 2.947369575500488 10.75197792053223 3.784659385681152 11.59665775299072 4.228919506072998 11.59665775299072 C 4.673179626464844 11.59665775299072 5.510469436645508 10.75195789337158 6.298989295959473 8.897377967834473 C 7.051739692687988 7.126927852630615 7.457919597625732 5.170697689056396 7.457919597625732 4.228947639465332 C 7.457919597625732 3.366457939147949 7.12205982208252 2.555587768554688 6.512189388275146 1.945717811584473 C 5.902319431304932 1.335847854614258 5.091459274291992 0.9999780654907227 4.228969573974609 0.9999780654907227 M 4.228969573974609 -2.193450927734375e-05 C 6.564559459686279 -3.24249267578125e-05 8.457929611206055 1.89334774017334 8.457919120788574 4.228947639465332 C 8.45790958404541 6.564558029174805 6.564509391784668 12.59664821624756 4.228919506072998 12.59665775299072 C 1.893319606781006 12.5966682434082 -3.0517578125e-05 6.564588069915771 -2.002716064453125e-05 4.228987693786621 C -1.049041748046875e-05 1.893378257751465 1.893369674682617 -1.239776611328125e-05 4.228969573974609 -2.193450927734375e-05 Z"/>
    </g>
    <g id="Path_346" data-name="Path 346" class="cls-2" transform="translate(725.012 8640.696) rotate(60)">
      <path class="cls-4" d="M4.229,0A4.229,4.229,0,0,1,8.458,4.229c0,2.336-1.893,8.368-4.229,8.368S0,6.565,0,4.229A4.229,4.229,0,0,1,4.229,0Z"/>
      <path class="cls-5" d="M 4.228969573974609 0.9999780654907227 C 2.448509693145752 0.9999876022338867 0.9999895095825195 2.448517799377441 0.9999794960021973 4.228987693786621 C 0.9999794960021973 5.170747756958008 1.406139373779297 7.126957893371582 2.158869743347168 8.897407531738281 C 2.947369575500488 10.75197792053223 3.784659385681152 11.59665775299072 4.228919506072998 11.59665775299072 C 4.673179626464844 11.59665775299072 5.510469436645508 10.75195789337158 6.298989295959473 8.897377967834473 C 7.051739692687988 7.126927852630615 7.457919597625732 5.170697689056396 7.457919597625732 4.228947639465332 C 7.457919597625732 3.366457939147949 7.12205982208252 2.555587768554688 6.512189388275146 1.945717811584473 C 5.902319431304932 1.335847854614258 5.091459274291992 0.9999780654907227 4.228969573974609 0.9999780654907227 M 4.228969573974609 -2.193450927734375e-05 C 6.564559459686279 -3.24249267578125e-05 8.457929611206055 1.89334774017334 8.457919120788574 4.228947639465332 C 8.45790958404541 6.564558029174805 6.564509391784668 12.59664821624756 4.228919506072998 12.59665775299072 C 1.893319606781006 12.5966682434082 -3.0517578125e-05 6.564588069915771 -2.002716064453125e-05 4.228987693786621 C -1.049041748046875e-05 1.893378257751465 1.893369674682617 -1.239776611328125e-05 4.228969573974609 -2.193450927734375e-05 Z"/>
    </g>
    <g id="Path_354" data-name="Path 354" class="cls-2" transform="translate(594.012 8635.696) rotate(60)">
      <path class="cls-4" d="M4.229,0A4.229,4.229,0,0,1,8.458,4.229c0,2.336-1.893,8.368-4.229,8.368S0,6.565,0,4.229A4.229,4.229,0,0,1,4.229,0Z"/>
      <path class="cls-5" d="M 4.228969573974609 0.9999780654907227 C 2.448509693145752 0.9999876022338867 0.9999895095825195 2.448517799377441 0.9999794960021973 4.228987693786621 C 0.9999794960021973 5.170747756958008 1.406139373779297 7.126957893371582 2.158869743347168 8.897407531738281 C 2.947369575500488 10.75197792053223 3.784659385681152 11.59665775299072 4.228919506072998 11.59665775299072 C 4.673179626464844 11.59665775299072 5.510469436645508 10.75195789337158 6.298989295959473 8.897377967834473 C 7.051739692687988 7.126927852630615 7.457919597625732 5.170697689056396 7.457919597625732 4.228947639465332 C 7.457919597625732 3.366457939147949 7.12205982208252 2.555587768554688 6.512189388275146 1.945717811584473 C 5.902319431304932 1.335847854614258 5.091459274291992 0.9999780654907227 4.228969573974609 0.9999780654907227 M 4.228969573974609 -2.193450927734375e-05 C 6.564559459686279 -3.24249267578125e-05 8.457929611206055 1.89334774017334 8.457919120788574 4.228947639465332 C 8.45790958404541 6.564558029174805 6.564509391784668 12.59664821624756 4.228919506072998 12.59665775299072 C 1.893319606781006 12.5966682434082 -3.0517578125e-05 6.564588069915771 -2.002716064453125e-05 4.228987693786621 C -1.049041748046875e-05 1.893378257751465 1.893369674682617 -1.239776611328125e-05 4.228969573974609 -2.193450927734375e-05 Z"/>
    </g>
    <g id="Path_336" data-name="Path 336" class="cls-2" transform="translate(638.837 8635.207) rotate(18)">
      <path class="cls-4" d="M1.6,0A1.5,1.5,0,0,1,3.2,1.378C3.2,2.138,2.483,4.1,1.6,4.1S0,2.138,0,1.378A1.5,1.5,0,0,1,1.6,0Z"/>
      <path class="cls-5" d="M 1.599692940711975 0.4999938011169434 C 0.9933228492736816 0.4999938011169434 0.5000028610229492 0.893683910369873 0.499992847442627 1.377583980560303 C 0.499992847442627 1.66391396522522 0.6559228897094727 2.275893926620483 0.916862964630127 2.804413795471191 C 1.206262946128845 3.390573978424072 1.483762979507446 3.603333950042725 1.599682927131653 3.603333950042725 C 1.715602993965149 3.603333950042725 1.993112921714783 3.39056396484375 2.282512903213501 2.804403781890869 C 2.543462991714478 2.275883913040161 2.699393033981323 1.663893938064575 2.699393033981323 1.37757396697998 C 2.699393033981323 0.8936738967895508 2.206072807312012 0.4999938011169434 1.599692940711975 0.4999938011169434 M 1.599692940711975 -6.198883056640625e-06 C 2.483182907104492 -6.198883056640625e-06 3.199393033981323 0.6167538166046143 3.199393033981323 1.37757396697998 C 3.199393033981323 2.138393878936768 2.48317289352417 4.103333950042725 1.599682927131653 4.103333950042725 C 0.7161929607391357 4.103333950042725 -7.152557373046875e-06 2.13840389251709 -7.152557373046875e-06 1.377583980560303 C 2.86102294921875e-06 0.6167638301849365 0.7162129878997803 -6.198883056640625e-06 1.599692940711975 -6.198883056640625e-06 Z"/>
    </g>
    <g id="Path_343" data-name="Path 343" class="cls-2" transform="translate(690.837 8641.207) rotate(18)">
      <path class="cls-4" d="M1.6,0A1.5,1.5,0,0,1,3.2,1.378C3.2,2.138,2.483,4.1,1.6,4.1S0,2.138,0,1.378A1.5,1.5,0,0,1,1.6,0Z"/>
      <path class="cls-5" d="M 1.599692940711975 0.4999938011169434 C 0.9933228492736816 0.4999938011169434 0.5000028610229492 0.893683910369873 0.499992847442627 1.377583980560303 C 0.499992847442627 1.66391396522522 0.6559228897094727 2.275893926620483 0.916862964630127 2.804413795471191 C 1.206262946128845 3.390573978424072 1.483762979507446 3.603333950042725 1.599682927131653 3.603333950042725 C 1.715602993965149 3.603333950042725 1.993112921714783 3.39056396484375 2.282512903213501 2.804403781890869 C 2.543462991714478 2.275883913040161 2.699393033981323 1.663893938064575 2.699393033981323 1.37757396697998 C 2.699393033981323 0.8936738967895508 2.206072807312012 0.4999938011169434 1.599692940711975 0.4999938011169434 M 1.599692940711975 -6.198883056640625e-06 C 2.483182907104492 -6.198883056640625e-06 3.199393033981323 0.6167538166046143 3.199393033981323 1.37757396697998 C 3.199393033981323 2.138393878936768 2.48317289352417 4.103333950042725 1.599682927131653 4.103333950042725 C 0.7161929607391357 4.103333950042725 -7.152557373046875e-06 2.13840389251709 -7.152557373046875e-06 1.377583980560303 C 2.86102294921875e-06 0.6167638301849365 0.7162129878997803 -6.198883056640625e-06 1.599692940711975 -6.198883056640625e-06 Z"/>
    </g>
    <g id="Path_351" data-name="Path 351" class="cls-2" transform="translate(559.837 8636.207) rotate(18)">
      <path class="cls-4" d="M1.6,0A1.5,1.5,0,0,1,3.2,1.378C3.2,2.138,2.483,4.1,1.6,4.1S0,2.138,0,1.378A1.5,1.5,0,0,1,1.6,0Z"/>
      <path class="cls-5" d="M 1.599692940711975 0.4999938011169434 C 0.9933228492736816 0.4999938011169434 0.5000028610229492 0.893683910369873 0.499992847442627 1.377583980560303 C 0.499992847442627 1.66391396522522 0.6559228897094727 2.275893926620483 0.916862964630127 2.804413795471191 C 1.206262946128845 3.390573978424072 1.483762979507446 3.603333950042725 1.599682927131653 3.603333950042725 C 1.715602993965149 3.603333950042725 1.993112921714783 3.39056396484375 2.282512903213501 2.804403781890869 C 2.543462991714478 2.275883913040161 2.699393033981323 1.663893938064575 2.699393033981323 1.37757396697998 C 2.699393033981323 0.8936738967895508 2.206072807312012 0.4999938011169434 1.599692940711975 0.4999938011169434 M 1.599692940711975 -6.198883056640625e-06 C 2.483182907104492 -6.198883056640625e-06 3.199393033981323 0.6167538166046143 3.199393033981323 1.37757396697998 C 3.199393033981323 2.138393878936768 2.48317289352417 4.103333950042725 1.599682927131653 4.103333950042725 C 0.7161929607391357 4.103333950042725 -7.152557373046875e-06 2.13840389251709 -7.152557373046875e-06 1.377583980560303 C 2.86102294921875e-06 0.6167638301849365 0.7162129878997803 -6.198883056640625e-06 1.599692940711975 -6.198883056640625e-06 Z"/>
    </g>
    <g id="Ellipse_80" data-name="Ellipse 80" class="cls-3" transform="translate(610.276 8644.665) rotate(81)">
      <ellipse class="cls-4" cx="1.225" cy="1.225" rx="1.225" ry="1.225"/>
      <ellipse class="cls-6" cx="1.225" cy="1.225" rx="0.975" ry="0.975"/>
    </g>
    <g id="Ellipse_82" data-name="Ellipse 82" class="cls-3" transform="translate(662.276 8650.665) rotate(81)">
      <ellipse class="cls-4" cx="1.225" cy="1.225" rx="1.225" ry="1.225"/>
      <ellipse class="cls-6" cx="1.225" cy="1.225" rx="0.975" ry="0.975"/>
    </g>
    <g id="Ellipse_84" data-name="Ellipse 84" class="cls-3" transform="translate(531.276 8645.665) rotate(81)">
      <ellipse class="cls-4" cx="1.225" cy="1.225" rx="1.225" ry="1.225"/>
      <ellipse class="cls-6" cx="1.225" cy="1.225" rx="0.975" ry="0.975"/>
    </g>
    <g id="Path_337" data-name="Path 337" class="cls-2" transform="translate(647.444 8632.464) rotate(-7)">
      <path class="cls-4" d="M3.405,0A3.405,3.405,0,0,1,6.811,3.405c0,1.881-1.525,6.738-3.405,6.738S0,5.286,0,3.405A3.405,3.405,0,0,1,3.405,0Z"/>
      <path class="cls-7" d="M 3.405330896377563 1.000005722045898 C 2.079030990600586 1.000005722045898 1.000000953674316 2.079015731811523 1.000000953674316 3.405286312103271 C 1.000000953674316 4.144376277923584 1.321630954742432 5.686336040496826 1.917680740356445 7.088226318359375 C 2.577830791473389 8.640875816345215 3.205030918121338 9.143186569213867 3.405340909957886 9.143186569213867 C 3.605650901794434 9.143186569213867 4.232841014862061 8.640886306762695 4.892991065979004 7.088226318359375 C 5.489040851593018 5.686346054077148 5.810660839080811 4.144396305084229 5.810660839080811 3.405306339263916 C 5.810660839080811 2.079015731811523 4.731630802154541 1.000005722045898 3.405330896377563 1.000005722045898 M 3.405330896377563 5.7220458984375e-06 C 5.286040782928467 5.7220458984375e-06 6.810660839080811 1.524605751037598 6.810660839080811 3.405306339263916 C 6.810660839080811 5.285995960235596 5.286050796508789 10.14318656921387 3.405340909957886 10.14318656921387 C 1.524631023406982 10.14318656921387 1.096725463867188e-05 5.285985946655273 9.5367431640625e-07 3.405296325683594 C 9.5367431640625e-07 1.524605751037598 1.52462100982666 5.7220458984375e-06 3.405330896377563 5.7220458984375e-06 Z"/>
    </g>
    <g id="Path_347" data-name="Path 347" class="cls-2" transform="translate(696.444 8647.464) rotate(-7)">
      <path class="cls-4" d="M3.405,0A3.405,3.405,0,0,1,6.811,3.405c0,1.881-1.525,6.738-3.405,6.738S0,5.286,0,3.405A3.405,3.405,0,0,1,3.405,0Z"/>
      <path class="cls-7" d="M 3.405330896377563 1.000005722045898 C 2.079030990600586 1.000005722045898 1.000000953674316 2.079015731811523 1.000000953674316 3.405286312103271 C 1.000000953674316 4.144376277923584 1.321630954742432 5.686336040496826 1.917680740356445 7.088226318359375 C 2.577830791473389 8.640875816345215 3.205030918121338 9.143186569213867 3.405340909957886 9.143186569213867 C 3.605650901794434 9.143186569213867 4.232841014862061 8.640886306762695 4.892991065979004 7.088226318359375 C 5.489040851593018 5.686346054077148 5.810660839080811 4.144396305084229 5.810660839080811 3.405306339263916 C 5.810660839080811 2.079015731811523 4.731630802154541 1.000005722045898 3.405330896377563 1.000005722045898 M 3.405330896377563 5.7220458984375e-06 C 5.286040782928467 5.7220458984375e-06 6.810660839080811 1.524605751037598 6.810660839080811 3.405306339263916 C 6.810660839080811 5.285995960235596 5.286050796508789 10.14318656921387 3.405340909957886 10.14318656921387 C 1.524631023406982 10.14318656921387 1.096725463867188e-05 5.285985946655273 9.5367431640625e-07 3.405296325683594 C 9.5367431640625e-07 1.524605751037598 1.52462100982666 5.7220458984375e-06 3.405330896377563 5.7220458984375e-06 Z"/>
    </g>
    <g id="Path_355" data-name="Path 355" class="cls-2" transform="translate(565.444 8642.464) rotate(-7)">
      <path class="cls-4" d="M3.405,0A3.405,3.405,0,0,1,6.811,3.405c0,1.881-1.525,6.738-3.405,6.738S0,5.286,0,3.405A3.405,3.405,0,0,1,3.405,0Z"/>
      <path class="cls-7" d="M 3.405330896377563 1.000005722045898 C 2.079030990600586 1.000005722045898 1.000000953674316 2.079015731811523 1.000000953674316 3.405286312103271 C 1.000000953674316 4.144376277923584 1.321630954742432 5.686336040496826 1.917680740356445 7.088226318359375 C 2.577830791473389 8.640875816345215 3.205030918121338 9.143186569213867 3.405340909957886 9.143186569213867 C 3.605650901794434 9.143186569213867 4.232841014862061 8.640886306762695 4.892991065979004 7.088226318359375 C 5.489040851593018 5.686346054077148 5.810660839080811 4.144396305084229 5.810660839080811 3.405306339263916 C 5.810660839080811 2.079015731811523 4.731630802154541 1.000005722045898 3.405330896377563 1.000005722045898 M 3.405330896377563 5.7220458984375e-06 C 5.286040782928467 5.7220458984375e-06 6.810660839080811 1.524605751037598 6.810660839080811 3.405306339263916 C 6.810660839080811 5.285995960235596 5.286050796508789 10.14318656921387 3.405340909957886 10.14318656921387 C 1.524631023406982 10.14318656921387 1.096725463867188e-05 5.285985946655273 9.5367431640625e-07 3.405296325683594 C 9.5367431640625e-07 1.524605751037598 1.52462100982666 5.7220458984375e-06 3.405330896377563 5.7220458984375e-06 Z"/>
    </g>
    <path id="Path_341" data-name="Path 341" class="cls-1" d="M5.6,0S4.535,1.592,2.97,4.1,0,9.255,0,9.255" transform="translate(622.311 8632.479) rotate(64)"/>
    <path id="Path_344" data-name="Path 344" class="cls-1" d="M5.6,0S4.535,1.592,2.97,4.1,0,9.255,0,9.255" transform="translate(629.311 8642.479) rotate(64)"/>
    <path id="Path_352" data-name="Path 352" class="cls-1" d="M5.6,0S4.535,1.592,2.97,4.1,0,9.255,0,9.255" transform="translate(591.311 8648.479) rotate(64)"/>
    <g id="Path_335" data-name="Path 335" class="cls-2" transform="translate(673.012 8634.696) rotate(60)">
      <path class="cls-4" d="M4.229,0A4.229,4.229,0,0,1,8.458,4.229c0,2.336-1.893,8.368-4.229,8.368S0,6.565,0,4.229A4.229,4.229,0,0,1,4.229,0Z"/>
      <path class="cls-5" d="M 4.228969573974609 0.9999780654907227 C 2.448509693145752 0.9999876022338867 0.9999895095825195 2.448517799377441 0.9999794960021973 4.228987693786621 C 0.9999794960021973 5.170747756958008 1.406139373779297 7.126957893371582 2.158869743347168 8.897407531738281 C 2.947369575500488 10.75197792053223 3.784659385681152 11.59665775299072 4.228919506072998 11.59665775299072 C 4.673179626464844 11.59665775299072 5.510469436645508 10.75195789337158 6.298989295959473 8.897377967834473 C 7.051739692687988 7.126927852630615 7.457919597625732 5.170697689056396 7.457919597625732 4.228947639465332 C 7.457919597625732 3.366457939147949 7.12205982208252 2.555587768554688 6.512189388275146 1.945717811584473 C 5.902319431304932 1.335847854614258 5.091459274291992 0.9999780654907227 4.228969573974609 0.9999780654907227 M 4.228969573974609 -2.193450927734375e-05 C 6.564559459686279 -3.24249267578125e-05 8.457929611206055 1.89334774017334 8.457919120788574 4.228947639465332 C 8.45790958404541 6.564558029174805 6.564509391784668 12.59664821624756 4.228919506072998 12.59665775299072 C 1.893319606781006 12.5966682434082 -3.0517578125e-05 6.564588069915771 -2.002716064453125e-05 4.228987693786621 C -1.049041748046875e-05 1.893378257751465 1.893369674682617 -1.239776611328125e-05 4.228969573974609 -2.193450927734375e-05 Z"/>
    </g>
    <g id="Path_348" data-name="Path 348" class="cls-2" transform="translate(721.488 8632.884) rotate(60)">
      <path class="cls-4" d="M2,0A2,2,0,0,1,4,2C4,3.1,3.1,5.951,2,5.951S0,3.1,0,2A2,2,0,0,1,2,0Z"/>
      <path class="cls-5" d="M 1.997857809066772 0.9999771118164062 L 1.997867822647095 0.9999771118164062 C 1.447637796401978 0.9999771118164062 0.9999778270721436 1.44763708114624 0.9999778270721436 1.997866868972778 C 0.9999778270721436 2.331707000732422 1.138367891311646 3.037477016448975 1.402857780456543 3.740486860275269 C 1.633676528930664 4.353984832763672 1.857934236526489 4.696651458740234 1.997828841209412 4.859807014465332 C 2.137727022171021 4.696650505065918 2.361991882324219 4.353981971740723 2.592817783355713 3.740477085113525 C 2.857317924499512 3.037467002868652 2.995717763900757 2.331676959991455 2.995717763900757 1.997847080230713 C 2.995717763900757 1.447617053985596 2.548077821731567 0.9999771118164062 1.997857809066772 0.9999771118164062 M 1.997857809066772 -2.288818359375e-05 C 3.101247787475586 -2.288818359375e-05 3.995717763900757 0.8944568634033203 3.995717763900757 1.997847080230713 C 3.995707750320435 3.101247072219849 3.101217746734619 5.950946807861328 1.997827768325806 5.95095682144165 C 0.8944377899169922 5.95095682144165 -2.217292785644531e-05 3.101257085800171 -2.217292785644531e-05 1.997866868972778 C -1.215934753417969e-05 0.8944668769836426 0.894467830657959 -1.287460327148438e-05 1.997857809066772 -2.288818359375e-05 Z"/>
    </g>
    <g id="Path_356" data-name="Path 356" class="cls-2" transform="translate(594.012 8635.696) rotate(60)">
      <path class="cls-4" d="M4.229,0A4.229,4.229,0,0,1,8.458,4.229c0,2.336-1.893,8.368-4.229,8.368S0,6.565,0,4.229A4.229,4.229,0,0,1,4.229,0Z"/>
      <path class="cls-5" d="M 4.228969573974609 0.9999780654907227 C 2.448509693145752 0.9999876022338867 0.9999895095825195 2.448517799377441 0.9999794960021973 4.228987693786621 C 0.9999794960021973 5.170747756958008 1.406139373779297 7.126957893371582 2.158869743347168 8.897407531738281 C 2.947369575500488 10.75197792053223 3.784659385681152 11.59665775299072 4.228919506072998 11.59665775299072 C 4.673179626464844 11.59665775299072 5.510469436645508 10.75195789337158 6.298989295959473 8.897377967834473 C 7.051739692687988 7.126927852630615 7.457919597625732 5.170697689056396 7.457919597625732 4.228947639465332 C 7.457919597625732 3.366457939147949 7.12205982208252 2.555587768554688 6.512189388275146 1.945717811584473 C 5.902319431304932 1.335847854614258 5.091459274291992 0.9999780654907227 4.228969573974609 0.9999780654907227 M 4.228969573974609 -2.193450927734375e-05 C 6.564559459686279 -3.24249267578125e-05 8.457929611206055 1.89334774017334 8.457919120788574 4.228947639465332 C 8.45790958404541 6.564558029174805 6.564509391784668 12.59664821624756 4.228919506072998 12.59665775299072 C 1.893319606781006 12.5966682434082 -3.0517578125e-05 6.564588069915771 -2.002716064453125e-05 4.228987693786621 C -1.049041748046875e-05 1.893378257751465 1.893369674682617 -1.239776611328125e-05 4.228969573974609 -2.193450927734375e-05 Z"/>
    </g>
    <g id="Path_338" data-name="Path 338" class="cls-2" transform="translate(638.837 8635.207) rotate(18)">
      <path class="cls-4" d="M1.6,0A1.5,1.5,0,0,1,3.2,1.378C3.2,2.138,2.483,4.1,1.6,4.1S0,2.138,0,1.378A1.5,1.5,0,0,1,1.6,0Z"/>
      <path class="cls-5" d="M 1.599692940711975 0.4999938011169434 C 0.9933228492736816 0.4999938011169434 0.5000028610229492 0.893683910369873 0.499992847442627 1.377583980560303 C 0.499992847442627 1.66391396522522 0.6559228897094727 2.275893926620483 0.916862964630127 2.804413795471191 C 1.206262946128845 3.390573978424072 1.483762979507446 3.603333950042725 1.599682927131653 3.603333950042725 C 1.715602993965149 3.603333950042725 1.993112921714783 3.39056396484375 2.282512903213501 2.804403781890869 C 2.543462991714478 2.275883913040161 2.699393033981323 1.663893938064575 2.699393033981323 1.37757396697998 C 2.699393033981323 0.8936738967895508 2.206072807312012 0.4999938011169434 1.599692940711975 0.4999938011169434 M 1.599692940711975 -6.198883056640625e-06 C 2.483182907104492 -6.198883056640625e-06 3.199393033981323 0.6167538166046143 3.199393033981323 1.37757396697998 C 3.199393033981323 2.138393878936768 2.48317289352417 4.103333950042725 1.599682927131653 4.103333950042725 C 0.7161929607391357 4.103333950042725 -7.152557373046875e-06 2.13840389251709 -7.152557373046875e-06 1.377583980560303 C 2.86102294921875e-06 0.6167638301849365 0.7162129878997803 -6.198883056640625e-06 1.599692940711975 -6.198883056640625e-06 Z"/>
    </g>
    <g id="Path_345" data-name="Path 345" class="cls-2" transform="translate(690.837 8641.207) rotate(18)">
      <path class="cls-4" d="M1.6,0A1.5,1.5,0,0,1,3.2,1.378C3.2,2.138,2.483,4.1,1.6,4.1S0,2.138,0,1.378A1.5,1.5,0,0,1,1.6,0Z"/>
      <path class="cls-5" d="M 1.599692940711975 0.4999938011169434 C 0.9933228492736816 0.4999938011169434 0.5000028610229492 0.893683910369873 0.499992847442627 1.377583980560303 C 0.499992847442627 1.66391396522522 0.6559228897094727 2.275893926620483 0.916862964630127 2.804413795471191 C 1.206262946128845 3.390573978424072 1.483762979507446 3.603333950042725 1.599682927131653 3.603333950042725 C 1.715602993965149 3.603333950042725 1.993112921714783 3.39056396484375 2.282512903213501 2.804403781890869 C 2.543462991714478 2.275883913040161 2.699393033981323 1.663893938064575 2.699393033981323 1.37757396697998 C 2.699393033981323 0.8936738967895508 2.206072807312012 0.4999938011169434 1.599692940711975 0.4999938011169434 M 1.599692940711975 -6.198883056640625e-06 C 2.483182907104492 -6.198883056640625e-06 3.199393033981323 0.6167538166046143 3.199393033981323 1.37757396697998 C 3.199393033981323 2.138393878936768 2.48317289352417 4.103333950042725 1.599682927131653 4.103333950042725 C 0.7161929607391357 4.103333950042725 -7.152557373046875e-06 2.13840389251709 -7.152557373046875e-06 1.377583980560303 C 2.86102294921875e-06 0.6167638301849365 0.7162129878997803 -6.198883056640625e-06 1.599692940711975 -6.198883056640625e-06 Z"/>
    </g>
    <g id="Ellipse_81" data-name="Ellipse 81" class="cls-3" transform="translate(610.276 8644.665) rotate(81)">
      <ellipse class="cls-4" cx="1.225" cy="1.225" rx="1.225" ry="1.225"/>
      <ellipse class="cls-6" cx="1.225" cy="1.225" rx="0.975" ry="0.975"/>
    </g>
    <g id="Ellipse_83" data-name="Ellipse 83" class="cls-3" transform="translate(662.276 8650.665) rotate(81)">
      <ellipse class="cls-4" cx="1.225" cy="1.225" rx="1.225" ry="1.225"/>
      <ellipse class="cls-6" cx="1.225" cy="1.225" rx="0.975" ry="0.975"/>
    </g>
    <g id="Ellipse_85" data-name="Ellipse 85" class="cls-3" transform="translate(624.276 8652.665) rotate(81)">
      <ellipse class="cls-4" cx="1.225" cy="1.225" rx="1.225" ry="1.225"/>
      <ellipse class="cls-6" cx="1.225" cy="1.225" rx="0.975" ry="0.975"/>
    </g>
    <g id="Path_339" data-name="Path 339" class="cls-2" transform="translate(641.444 8647.464) rotate(-7)">
      <path class="cls-4" d="M3.405,0A3.405,3.405,0,0,1,6.811,3.405c0,1.881-1.525,6.738-3.405,6.738S0,5.286,0,3.405A3.405,3.405,0,0,1,3.405,0Z"/>
      <path class="cls-7" d="M 3.405330896377563 1.000005722045898 C 2.079030990600586 1.000005722045898 1.000000953674316 2.079015731811523 1.000000953674316 3.405286312103271 C 1.000000953674316 4.144376277923584 1.321630954742432 5.686336040496826 1.917680740356445 7.088226318359375 C 2.577830791473389 8.640875816345215 3.205030918121338 9.143186569213867 3.405340909957886 9.143186569213867 C 3.605650901794434 9.143186569213867 4.232841014862061 8.640886306762695 4.892991065979004 7.088226318359375 C 5.489040851593018 5.686346054077148 5.810660839080811 4.144396305084229 5.810660839080811 3.405306339263916 C 5.810660839080811 2.079015731811523 4.731630802154541 1.000005722045898 3.405330896377563 1.000005722045898 M 3.405330896377563 5.7220458984375e-06 C 5.286040782928467 5.7220458984375e-06 6.810660839080811 1.524605751037598 6.810660839080811 3.405306339263916 C 6.810660839080811 5.285995960235596 5.286050796508789 10.14318656921387 3.405340909957886 10.14318656921387 C 1.524631023406982 10.14318656921387 1.096725463867188e-05 5.285985946655273 9.5367431640625e-07 3.405296325683594 C 9.5367431640625e-07 1.524605751037598 1.52462100982666 5.7220458984375e-06 3.405330896377563 5.7220458984375e-06 Z"/>
    </g>
    <g id="Path_349" data-name="Path 349" class="cls-2" transform="translate(696.444 8647.464) rotate(-7)">
      <path class="cls-4" d="M3.405,0A3.405,3.405,0,0,1,6.811,3.405c0,1.881-1.525,6.738-3.405,6.738S0,5.286,0,3.405A3.405,3.405,0,0,1,3.405,0Z"/>
      <path class="cls-7" d="M 3.405330896377563 1.000005722045898 C 2.079030990600586 1.000005722045898 1.000000953674316 2.079015731811523 1.000000953674316 3.405286312103271 C 1.000000953674316 4.144376277923584 1.321630954742432 5.686336040496826 1.917680740356445 7.088226318359375 C 2.577830791473389 8.640875816345215 3.205030918121338 9.143186569213867 3.405340909957886 9.143186569213867 C 3.605650901794434 9.143186569213867 4.232841014862061 8.640886306762695 4.892991065979004 7.088226318359375 C 5.489040851593018 5.686346054077148 5.810660839080811 4.144396305084229 5.810660839080811 3.405306339263916 C 5.810660839080811 2.079015731811523 4.731630802154541 1.000005722045898 3.405330896377563 1.000005722045898 M 3.405330896377563 5.7220458984375e-06 C 5.286040782928467 5.7220458984375e-06 6.810660839080811 1.524605751037598 6.810660839080811 3.405306339263916 C 6.810660839080811 5.285995960235596 5.286050796508789 10.14318656921387 3.405340909957886 10.14318656921387 C 1.524631023406982 10.14318656921387 1.096725463867188e-05 5.285985946655273 9.5367431640625e-07 3.405296325683594 C 9.5367431640625e-07 1.524605751037598 1.52462100982666 5.7220458984375e-06 3.405330896377563 5.7220458984375e-06 Z"/>
    </g>
    <g id="Path_357" data-name="Path 357" class="cls-2" transform="translate(565.444 8642.464) rotate(-7)">
      <path class="cls-4" d="M3.405,0A3.405,3.405,0,0,1,6.811,3.405c0,1.881-1.525,6.738-3.405,6.738S0,5.286,0,3.405A3.405,3.405,0,0,1,3.405,0Z"/>
      <path class="cls-7" d="M 3.405330896377563 1.000005722045898 C 2.079030990600586 1.000005722045898 1.000000953674316 2.079015731811523 1.000000953674316 3.405286312103271 C 1.000000953674316 4.144376277923584 1.321630954742432 5.686336040496826 1.917680740356445 7.088226318359375 C 2.577830791473389 8.640875816345215 3.205030918121338 9.143186569213867 3.405340909957886 9.143186569213867 C 3.605650901794434 9.143186569213867 4.232841014862061 8.640886306762695 4.892991065979004 7.088226318359375 C 5.489040851593018 5.686346054077148 5.810660839080811 4.144396305084229 5.810660839080811 3.405306339263916 C 5.810660839080811 2.079015731811523 4.731630802154541 1.000005722045898 3.405330896377563 1.000005722045898 M 3.405330896377563 5.7220458984375e-06 C 5.286040782928467 5.7220458984375e-06 6.810660839080811 1.524605751037598 6.810660839080811 3.405306339263916 C 6.810660839080811 5.285995960235596 5.286050796508789 10.14318656921387 3.405340909957886 10.14318656921387 C 1.524631023406982 10.14318656921387 1.096725463867188e-05 5.285985946655273 9.5367431640625e-07 3.405296325683594 C 9.5367431640625e-07 1.524605751037598 1.52462100982666 5.7220458984375e-06 3.405330896377563 5.7220458984375e-06 Z"/>
    </g>
  </g>
</svg>
