<svg xmlns="http://www.w3.org/2000/svg" viewBox="0 0 45.905 45.903">
  <defs>
    <style>
      .cls-1 {
        fill: #ff7900;
      }
    </style>
  </defs>
  <g id="email" transform="translate(-0.001 -0.005)">
    <g id="Group_144" data-name="Group 144" transform="translate(0.001 0.004)">
      <g id="Group_143" data-name="Group 143">
        <path id="Path_304" data-name="Path 304" class="cls-1" d="M45.9,17.553a.723.723,0,0,0-.031-.155.766.766,0,0,0-.044-.132.687.687,0,0,0-.076-.117.721.721,0,0,0-.1-.119c-.012-.011-.018-.025-.031-.036L38.254,11.28V5.357a2.3,2.3,0,0,0-2.3-2.3H27.667L24.348.484a2.269,2.269,0,0,0-2.79,0L18.237,3.062H9.945a2.3,2.3,0,0,0-2.3,2.3V11.28L.294,16.995c-.013.011-.018.025-.031.036a.718.718,0,0,0-.1.119.683.683,0,0,0-.076.117.755.755,0,0,0-.044.132.725.725,0,0,0-.031.153c0,.016-.009.03-.009.046V43.613a2.27,2.27,0,0,0,.449,1.35c0,.007.005.015.011.021s.017.013.024.021a2.284,2.284,0,0,0,1.809.9H43.61A2.285,2.285,0,0,0,45.425,45c.006-.008.015-.01.021-.018s.006-.015.011-.021a2.27,2.27,0,0,0,.449-1.35V17.6C45.905,17.583,45.9,17.569,45.9,17.553ZM22.493,1.692a.734.734,0,0,1,.913,0l1.765,1.37H20.733ZM2.487,44.378l20.006-15.54a.735.735,0,0,1,.913,0l20.011,15.54Zm41.888-1.193L24.348,27.63a2.27,2.27,0,0,0-2.79,0L1.529,43.185V18.764L14.067,28.5A.765.765,0,1,0,15,27.291L2.267,17.4,7.65,13.217v5.912a.765.765,0,1,0,1.53,0V5.357a.765.765,0,0,1,.765-.765H35.959a.765.765,0,0,1,.765.765V19.129a.765.765,0,1,0,1.53,0V13.217L43.637,17.4l-12.76,9.908a.765.765,0,1,0,.938,1.209l12.56-9.753V43.185Z" transform="translate(-0.001 -0.005)"/>
        <path id="Path_305" data-name="Path 305" class="cls-1" d="M171.937,80.479v-3.06a9.181,9.181,0,1,0-9.181,9.181.765.765,0,1,0,0-1.53,7.651,7.651,0,1,1,7.651-7.651v3.06a1.53,1.53,0,1,1-3.061,0v-3.06a.765.765,0,1,0-1.53,0,3.06,3.06,0,1,1-3.06-3.06.765.765,0,1,0,0-1.53,4.591,4.591,0,1,0,3.093,7.973,3.052,3.052,0,0,0,6.088-.322Z" transform="translate(-139.804 -62.119)"/>
      </g>
    </g>
  </g>
</svg>
