<svg xmlns="http://www.w3.org/2000/svg" xmlns:xlink="http://www.w3.org/1999/xlink" viewBox="0 0 111.169 136.862"><defs><style>.a{fill:#008cf0;opacity:0.03;}.b{fill:url(#a);}.c{fill:#dfdfdf;}.d,.e,.j{fill:none;}.e{stroke:#008cf0;}.f,.g,.h,.i{stroke:none;}.g{fill:#ff7900;}.h{fill:#ffbe00;}.i{fill:#00dbcf;}</style><linearGradient id="a" x1="0.5" x2="0.5" y2="1" gradientUnits="objectBoundingBox"><stop offset="0" stop-color="#ffbe00"/><stop offset="1" stop-color="#ff7900"/></linearGradient></defs><g transform="translate(-151 -805.156)"><path class="a" d="M50.5,0A50.5,50.5,0,0,1,101,50.5c0,27.89-22.61,80.517-50.5,80.517S0,78.39,0,50.5A50.5,50.5,0,0,1,50.5,0Z" transform="translate(151 811)"/><g transform="translate(152 830.094)"><g transform="translate(0 2.58)"><path class="b" d="M138.469,44.834A21.128,21.128,0,1,0,117.16,23.707,21.243,21.243,0,0,0,138.469,44.834Zm0-39.437A18.311,18.311,0,1,1,120,23.707,18.411,18.411,0,0,1,138.469,5.4Z" transform="translate(-96.355 -2.58)"/><path class="b" d="M200,66.58V69.4H197.16V83.482H200V86.3h2.841V83.482h2.841V86.3h2.841V83.223a4.189,4.189,0,0,0,1.753-6.783,4.189,4.189,0,0,0-1.753-6.783V66.58h-2.841V69.4h-2.841V66.58Zm7.1,14.085H200V77.848h7.1a1.409,1.409,0,1,1,0,2.817Zm0-8.451a1.409,1.409,0,1,1,0,2.817H200V72.214Z" transform="translate(-162.149 -55.312)"/><path class="b" d="M154.888,58.092a12.651,12.651,0,0,1,9.9-20.695,12.871,12.871,0,0,1,8.088,2.862l1.8-2.179a15.742,15.742,0,0,0-9.889-3.5,15.464,15.464,0,0,0-12.1,25.3Z" transform="translate(-122.673 -28.946)"/><path class="b" d="M191.361,89.373a12.871,12.871,0,0,1-8.088-2.862l-1.8,2.179a15.742,15.742,0,0,0,9.889,3.5,15.464,15.464,0,0,0,12.1-25.3l-2.2,1.786a12.651,12.651,0,0,1-9.9,20.695Z" transform="translate(-149.247 -55.569)"/><path class="c" d="M244.041,50.58H225.572V53.4h18.468a4.249,4.249,0,0,1,4.262,4.225v64.79a4.249,4.249,0,0,1-4.262,4.225H218.469V87.2h-2.841v39.437h-7.1V87.2h-2.841v39.437h-1.421A4.249,4.249,0,0,1,200,122.412V87.2H197.16v35.212a7.081,7.081,0,0,0,7.1,7.042h39.777a7.081,7.081,0,0,0,7.1-7.042V57.622A7.081,7.081,0,0,0,244.041,50.58Z" transform="translate(-162.149 -42.129)"/><path class="b" d="M381.684,347.933a8.5,8.5,0,0,0,8.524-8.451,8.337,8.337,0,0,0-1.154-4.225,8.337,8.337,0,0,0,1.154-4.225,8.524,8.524,0,0,0-17.047,0,8.337,8.337,0,0,0,1.154,4.225,8.337,8.337,0,0,0-1.154,4.225A8.5,8.5,0,0,0,381.684,347.933Zm0-22.536a5.664,5.664,0,0,1,5.683,5.634,5.535,5.535,0,0,1-.347,1.87,8.546,8.546,0,0,0-10.672,0,5.534,5.534,0,0,1-.347-1.87A5.664,5.664,0,0,1,381.684,325.4Zm3.719,9.859a5.615,5.615,0,0,1-7.438,0,5.615,5.615,0,0,1,7.438,0Zm-9.055,2.355a8.546,8.546,0,0,0,10.672,0,5.535,5.535,0,0,1,.347,1.87,5.683,5.683,0,0,1-11.365,0A5.534,5.534,0,0,1,376.348,337.611Z" transform="translate(-306.895 -266.241)"/><rect class="c" width="2.841" height="2.817" transform="translate(15.123 5.634)"/><path class="c" d="M27.908,123.857,7.515,106.017H17.964V66.58H15.123V103.2H0l27.908,24.415,5.2-4.551-1.881-2.113Z" transform="translate(0 -55.312)"/><rect class="c" width="2.841" height="2.817" transform="translate(15.123)"/></g></g><g class="d" transform="matrix(0.951, -0.309, 0.309, 0.951, 246.39, 816.425)"><path class="f" d="M5.445,5.66c3.075,0,5.69-1.568,5.69,1.507S8.52,16.8,5.445,16.8,0,10.242,0,7.167,2.37,5.66,5.445,5.66Z"/><path class="g" d="M 1.540776252746582 6.260416984558105 C 1.263856887817383 6.260416984558105 1.159027099609375 6.306306838989258 1.144146919250488 6.32237720489502 C 1.138257026672363 6.328737258911133 0.9999971389770508 6.485846519470215 0.9999971389770508 7.166966438293457 C 0.9999971389770508 8.632236480712891 1.604496955871582 10.90713691711426 2.470036506652832 12.69911670684814 C 3.406386852264404 14.63767623901367 4.518616676330566 15.7950267791748 5.44525671005249 15.7950267791748 C 6.389646530151367 15.7950267791748 7.551576614379883 14.62957668304443 8.553417205810547 12.67745685577393 C 9.484537124633789 10.86314678192139 10.13483619689941 8.597156524658203 10.13483619689941 7.166966438293457 C 10.13483619689941 6.522747039794922 9.997226715087891 6.367186546325684 9.981536865234375 6.351576805114746 C 9.966226577758789 6.336346626281738 9.869846343994141 6.26038646697998 9.473776817321777 6.260416984558105 C 9.078826904296875 6.260446548461914 8.55484676361084 6.337837219238281 8.000086784362793 6.419776916503906 C 7.237136840820312 6.532466888427734 6.372386455535889 6.660197257995605 5.44525671005249 6.660197257995605 C 4.503576755523682 6.660197257995605 3.652666568756104 6.529646873474121 2.90192699432373 6.41447639465332 C 2.363116264343262 6.331807136535645 1.897787094116211 6.260416984558105 1.540776252746582 6.260416984558105 M 1.540780067443848 5.260417938232422 C 2.519708633422852 5.260417938232422 3.892655372619629 5.660197257995605 5.44525671005249 5.660197257995605 C 6.99767017364502 5.660197257995605 8.433124542236328 5.260495185852051 9.473699569702148 5.260417938232422 C 10.49414920806885 5.260342597961426 11.13483619689941 5.644580841064453 11.13483619689941 7.166966438293457 C 11.13483619689941 10.24176692962646 8.52005672454834 16.7950267791748 5.44525671005249 16.7950267791748 C 2.370456695556641 16.7950267791748 -2.86102294921875e-06 10.24176692962646 -2.86102294921875e-06 7.166966438293457 C -2.86102294921875e-06 5.644767761230469 0.5810213088989258 5.260417938232422 1.540780067443848 5.260417938232422 Z"/></g><g class="d" transform="translate(195.361 809.731) rotate(-20)"><path class="f" d="M6.689,0a6.689,6.689,0,0,1,6.689,6.689c0,3.694-2.995,12.177-6.689,12.177S0,10.384,0,6.689A6.689,6.689,0,0,1,6.689,0Z"/><path class="h" d="M 6.689206123352051 1.000003814697266 C 3.552165985107422 1.000003814697266 0.9999961853027344 3.552164077758789 0.9999961853027344 6.689204216003418 C 0.9999961853027344 8.497623443603516 1.766786575317383 11.3965539932251 2.864686012268066 13.7388744354248 C 4.076175689697266 16.32352447509766 5.505906105041504 17.86660385131836 6.689206123352051 17.86660385131836 C 7.872506141662598 17.86660385131836 9.302236557006836 16.32352447509766 10.51372623443604 13.7388744354248 C 11.61162567138672 11.3965539932251 12.37841606140137 8.497623443603516 12.37841606140137 6.689204216003418 C 12.37841606140137 3.552164077758789 9.82624626159668 1.000003814697266 6.689206123352051 1.000003814697266 M 6.689206123352051 3.814697265625e-06 C 10.3835563659668 3.814697265625e-06 13.37841606140137 2.994863510131836 13.37841606140137 6.689204216003418 C 13.37841606140137 10.38355350494385 10.3835563659668 18.86660385131836 6.689206123352051 18.86660385131836 C 2.994855880737305 18.86660385131836 -3.814697265625e-06 10.38355350494385 -3.814697265625e-06 6.689204216003418 C -3.814697265625e-06 2.994863510131836 2.994855880737305 3.814697265625e-06 6.689206123352051 3.814697265625e-06 Z"/></g><g class="d" transform="translate(154.253 921.859) rotate(-20)"><path class="f" d="M2.49,0A2.49,2.49,0,0,1,4.98,2.49c0,1.375-1.115,4.533-2.49,4.533S0,3.865,0,2.49A2.49,2.49,0,0,1,2.49,0Z"/><path class="i" d="M 2.490108489990234 1 C 1.668458461761475 1 0.9999985694885254 1.668459892272949 0.9999985694885254 2.490109920501709 C 0.9999985694885254 2.948470115661621 1.196318387985229 3.857769966125488 1.571548461914062 4.708829879760742 C 1.994024991989136 5.667061805725098 2.37958836555481 5.972314834594727 2.490108489990234 6.019203186035156 C 2.600628614425659 5.972314834594727 2.986191749572754 5.667061805725098 3.408668518066406 4.708829879760742 C 3.78389835357666 3.857769966125488 3.980218410491943 2.948470115661621 3.980218410491943 2.490109920501709 C 3.980218410491943 1.668459892272949 3.311758518218994 1 2.490108489990234 1 M 2.490108489990234 0 C 3.865358352661133 0 4.980218410491943 1.114860057830811 4.980218410491943 2.490109920501709 C 4.980218410491943 3.865360021591187 3.865358352661133 7.023240089416504 2.490108489990234 7.023240089416504 C 1.114858388900757 7.023240089416504 -1.430511474609375e-06 3.865360021591187 -1.430511474609375e-06 2.490109920501709 C -1.430511474609375e-06 1.114860057830811 1.114858388900757 0 2.490108489990234 0 Z"/></g><g class="e" transform="translate(235 929)"><circle class="f" cx="5.5" cy="5.5" r="5.5"/><circle class="j" cx="5.5" cy="5.5" r="5"/></g></g></svg>