<svg xmlns="http://www.w3.org/2000/svg" viewBox="0 0 46.213 46.213">
  <defs>
    <style>
      .cls-1 {
        fill: #ff7900;
      }
    </style>
  </defs>
  <g id="home-message" transform="translate(-1.002)">
    <g id="Group_148" data-name="Group 148" transform="translate(1.003)">
      <g id="Group_147" data-name="Group 147">
        <path id="Path_310" data-name="Path 310" class="cls-1" d="M44.544,0H7.525A2.674,2.674,0,0,0,4.854,2.671V35.919l-3.793,9.23a.77.77,0,0,0,1,1.007l11.307-4.566H44.544a2.674,2.674,0,0,0,2.671-2.671V2.671A2.674,2.674,0,0,0,44.544,0Zm1.131,38.92a1.131,1.131,0,0,1-1.131,1.131H13.218a.77.77,0,0,0-.288.055L3.181,44.043l3.158-7.68a.76.76,0,0,0,.055-.293V2.671A1.132,1.132,0,0,1,7.525,1.54H44.544a1.131,1.131,0,0,1,1.131,1.131Z" transform="translate(-1.003)"/>
        <path id="Path_311" data-name="Path 311" class="cls-1" d="M135.635,51.408a.77.77,0,0,0-1.058,0L120.713,64.5a.77.77,0,1,0,1.058,1.12l13.335-12.594,13.335,12.594A.77.77,0,1,0,149.5,64.5Z" transform="translate(-109.689 -46.576)"/>
        <path id="Path_312" data-name="Path 312" class="cls-1" d="M169.951,230.4a.77.77,0,0,0-.77.77v13.464a.4.4,0,0,1-.4.4h-5.762v-8.843a1.942,1.942,0,0,0-1.94-1.94h-5.362a1.942,1.942,0,0,0-1.94,1.94v8.843h-5.762a.4.4,0,0,1-.4-.4V231.17a.77.77,0,0,0-1.54,0v13.464a1.942,1.942,0,0,0,1.94,1.94h20.766a1.942,1.942,0,0,0,1.94-1.94V231.17A.77.77,0,0,0,169.951,230.4Zm-8.472,14.634h-6.162v-8.843a.4.4,0,0,1,.4-.4h5.362a.4.4,0,0,1,.4.4Z" transform="translate(-132.981 -209.604)"/>
        <path id="Path_313" data-name="Path 313" class="cls-1" d="M233.718,169.836h4.621a2.311,2.311,0,0,0,2.311-2.311v-3.081a2.311,2.311,0,0,0-2.311-2.311h-4.621a2.311,2.311,0,0,0-2.311,2.311v3.081A2.311,2.311,0,0,0,233.718,169.836Zm-.77-5.391a.77.77,0,0,1,.77-.77h4.621a.77.77,0,0,1,.77.77v3.081a.77.77,0,0,1-.77.77h-4.621a.77.77,0,0,1-.77-.77Z" transform="translate(-210.611 -147.5)"/>
      </g>
    </g>
  </g>
</svg>
