<svg xmlns="http://www.w3.org/2000/svg" xmlns:xlink="http://www.w3.org/1999/xlink" viewBox="0 0 204.688 54.256">
  <defs>
    <style>
      .cls-1, .cls-19, .cls-20 {
        fill: none;
      }

      .cls-2 {
        clip-path: url(#clip-path);
      }

      .cls-3 {
        clip-path: url(#clip-path-2);
      }

      .cls-4 {
        fill: url(#linear-gradient);
      }

      .cls-5 {
        fill: url(#linear-gradient-2);
      }

      .cls-6 {
        fill: url(#linear-gradient-4);
      }

      .cls-7 {
        fill: url(#linear-gradient-5);
      }

      .cls-8 {
        fill: url(#linear-gradient-6);
      }

      .cls-9 {
        fill: url(#linear-gradient-7);
      }

      .cls-10 {
        fill: url(#linear-gradient-9);
      }

      .cls-11 {
        fill: url(#linear-gradient-10);
      }

      .cls-12 {
        fill: url(#linear-gradient-12);
      }

      .cls-13 {
        fill: url(#linear-gradient-15);
      }

      .cls-14 {
        fill: url(#linear-gradient-16);
      }

      .cls-15 {
        fill: url(#linear-gradient-17);
      }

      .cls-16, .cls-18 {
        fill: #fff;
      }

      .cls-17 {
        stroke: #151935;
        fill: url(#linear-gradient-18);
      }

      .cls-18 {
        font-size: 5px;
        font-family: Helvetica;
      }

      .cls-19 {
        stroke: rgba(255,255,255,0.95);
      }

      .cls-19, .cls-20 {
        stroke-linecap: round;
        stroke-width: 2px;
      }

      .cls-20 {
        stroke: #fff;
      }

      .cls-21 {
        stroke: none;
      }
    </style>
    <clipPath id="clip-path">
      <rect class="cls-1" width="204.688" height="54.256"/>
    </clipPath>
    <clipPath id="clip-path-2">
      <circle id="Ellipse_55" data-name="Ellipse 55" cx="27.081" cy="27.081" r="27.081"/>
    </clipPath>
    <linearGradient id="linear-gradient" x1="0.5" y1="1" x2="0.5" gradientUnits="objectBoundingBox">
      <stop offset="0" stop-color="#170728" stop-opacity="0"/>
      <stop offset="0.187" stop-color="#008cf0" stop-opacity="0.039"/>
      <stop offset="0.438" stop-color="#008cf0" stop-opacity="0.149"/>
      <stop offset="0.725" stop-color="#008cf0" stop-opacity="0.2"/>
      <stop offset="1" stop-color="#008cf0" stop-opacity="0.278"/>
    </linearGradient>
    <linearGradient id="linear-gradient-2" x1="0.5" y1="1" x2="0.5" gradientUnits="objectBoundingBox">
      <stop offset="0" stop-color="#0fb"/>
      <stop offset="0.151" stop-color="#00f9be"/>
      <stop offset="0.356" stop-color="#00e8c8"/>
      <stop offset="0.589" stop-color="#00ccd9"/>
      <stop offset="0.844" stop-color="#00a5ef"/>
      <stop offset="1" stop-color="#0089ff"/>
    </linearGradient>
    <linearGradient id="linear-gradient-4" x1="0.5" y1="1" x2="0.5" gradientUnits="objectBoundingBox">
      <stop offset="0" stop-color="#fff" stop-opacity="0.102"/>
      <stop offset="0.033" stop-color="#fff" stop-opacity="0.102"/>
      <stop offset="0.89" stop-color="#fff" stop-opacity="0.012"/>
      <stop offset="1" stop-color="#fff" stop-opacity="0"/>
    </linearGradient>
    <linearGradient id="linear-gradient-5" x1="0.495" y1="1" x2="0.495" gradientUnits="objectBoundingBox">
      <stop offset="0" stop-color="#fff" stop-opacity="0"/>
      <stop offset="1" stop-color="#fff" stop-opacity="0.2"/>
    </linearGradient>
    <linearGradient id="linear-gradient-6" x1="0.497" x2="0.497" xlink:href="#linear-gradient-5"/>
    <linearGradient id="linear-gradient-7" x1="0.496" x2="0.496" xlink:href="#linear-gradient-5"/>
    <linearGradient id="linear-gradient-9" x1="0.497" x2="0.497" xlink:href="#linear-gradient-5"/>
    <linearGradient id="linear-gradient-10" x1="0.498" x2="0.498" xlink:href="#linear-gradient-5"/>
    <linearGradient id="linear-gradient-12" x1="0.497" x2="0.497" xlink:href="#linear-gradient-5"/>
    <linearGradient id="linear-gradient-15" x1="1.807" y1="2.008" x2="0.34" y2="0.841" gradientUnits="objectBoundingBox">
      <stop offset="0" stop-color="#fff" stop-opacity="0"/>
      <stop offset="1" stop-color="#fff" stop-opacity="0.031"/>
    </linearGradient>
    <linearGradient id="linear-gradient-16" x1="0.732" y1="3.17" x2="-0.833" y2="1.944" gradientUnits="objectBoundingBox">
      <stop offset="0" stop-color="#fff" stop-opacity="0"/>
      <stop offset="1" stop-color="#fff" stop-opacity="0.09"/>
    </linearGradient>
    <linearGradient id="linear-gradient-17" x1="0.805" y1="2.843" x2="-0.13" y2="2.039" gradientUnits="objectBoundingBox">
      <stop offset="0" stop-color="#fff" stop-opacity="0"/>
      <stop offset="1" stop-color="#fff" stop-opacity="0.051"/>
    </linearGradient>
    <linearGradient id="linear-gradient-18" x1="1.069" y1="-0.133" x2="-0.186" y2="1.302" gradientUnits="objectBoundingBox">
      <stop offset="0" stop-color="#ff7900"/>
      <stop offset="1" stop-color="#ffbe00"/>
    </linearGradient>
  </defs>
  <g id="Repeat_Grid_3" data-name="Repeat Grid 3" class="cls-2">
    <g id="Group_176" data-name="Group 176" transform="translate(-100.25 5)">
      <g id="Group_160" data-name="Group 160">
        <g id="Group_135" data-name="Group 135" transform="translate(-95.247 -5)">
          <g id="Group_134" data-name="Group 134" transform="translate(195.498 0.093)">
            <g id="Group_131" data-name="Group 131" class="cls-3" transform="translate(0)">
              <circle id="Ellipse_54" data-name="Ellipse 54" class="cls-4" cx="27.081" cy="27.081" r="27.081"/>
            </g>
            <g id="Group_132" data-name="Group 132" class="cls-3" transform="translate(0)">
              <path id="Path_293" data-name="Path 293" class="cls-5" d="M44.875,260.8a33.985,33.985,0,0,1,17.868,4.839c6.877,4.132,7.212,7.92,12.1,9.12,9.53,2.345,17.077-9.883,20.66-7.817,4.588,2.643,2.075,28.449-13.959,39.831-21.767,15.448-62.473.121-65.33-16.751C14.21,278.258,29.891,261.441,44.875,260.8Z" transform="translate(-40.221 -236.603)"/>
            </g>
            <g id="Group_133" data-name="Group 133" class="cls-3" transform="translate(0)">
              <path id="Path_294" data-name="Path 294" class="cls-5" d="M28.875,352.8a33.984,33.984,0,0,1,17.868,4.839c6.877,4.132,7.212,7.92,12.1,9.12,9.53,2.345,17.077-9.883,20.66-7.817,4.588,2.643,2.075,28.449-13.959,39.831-21.767,15.448-62.473.121-65.33-16.751C-1.79,370.258,13.891,353.441,28.875,352.8Z" transform="translate(-25.71 -320.041)"/>
            </g>
          </g>
          <path id="Path_295" data-name="Path 295" class="cls-6" d="M567.68,27.081A27.083,27.083,0,0,1,540.6,54.163c-.912,0-1.815-.047-2.7-.13a27.086,27.086,0,0,0,0-53.9A25.822,25.822,0,0,1,540.6,0,27.083,27.083,0,0,1,567.68,27.081Z" transform="translate(-318.02)"/>
          <circle id="Ellipse_58" data-name="Ellipse 58" class="cls-7" cx="0.419" cy="0.419" r="0.419" transform="translate(196.614 26.523)"/>
          <circle id="Ellipse_59" data-name="Ellipse 59" class="cls-8" cx="0.698" cy="0.698" r="0.698" transform="translate(200.43 30.059)"/>
          <circle id="Ellipse_60" data-name="Ellipse 60" class="cls-9" cx="0.605" cy="0.605" r="0.605" transform="translate(205.921 27.919)"/>
          <circle id="Ellipse_61" data-name="Ellipse 61" class="cls-9" cx="0.605" cy="0.605" r="0.605" transform="translate(212.807 31.176)"/>
          <circle id="Ellipse_62" data-name="Ellipse 62" class="cls-10" cx="0.791" cy="0.791" r="0.791" transform="translate(212.435 41.134)"/>
          <circle id="Ellipse_63" data-name="Ellipse 63" class="cls-11" cx="1.163" cy="1.163" r="1.163" transform="translate(219.136 48.114)"/>
          <circle id="Ellipse_64" data-name="Ellipse 64" class="cls-10" cx="0.791" cy="0.791" r="0.791" transform="translate(226.767 44.019)"/>
          <circle id="Ellipse_65" data-name="Ellipse 65" class="cls-12" cx="0.884" cy="0.884" r="0.884" transform="translate(235.329 38.807)"/>
          <circle id="Ellipse_66" data-name="Ellipse 66" class="cls-10" cx="0.791" cy="0.791" r="0.791" transform="translate(203.966 34.154)"/>
          <circle id="Ellipse_68" data-name="Ellipse 68" class="cls-11" cx="1.163" cy="1.163" r="1.163" transform="translate(221.462 35.271)"/>
          <path id="Path_297" data-name="Path 297" class="cls-13" d="M527.716,36.91,523.268,38.6a.42.42,0,0,1-.54-.242h0a.42.42,0,0,1,.242-.54l4.448-1.694a.42.42,0,0,1,.54.242h0A.42.42,0,0,1,527.716,36.91Z" transform="translate(-304.234 -32.74)"/>
          <path id="Path_298" data-name="Path 298" class="cls-14" d="M609.481,44.51l-4.113,1.573a.42.42,0,0,1-.54-.242h0a.42.42,0,0,1,.242-.54l4.113-1.573a.42.42,0,0,1,.54.242h0A.42.42,0,0,1,609.481,44.51Z" transform="translate(-378.694 -39.633)"/>
          <path id="Path_299" data-name="Path 299" class="cls-15" d="M669.741,85.51l-7.473,2.848a.42.42,0,0,1-.54-.242h0a.42.42,0,0,1,.242-.54l7.473-2.848a.42.42,0,0,1,.54.242h0A.42.42,0,0,1,669.741,85.51Z" transform="translate(-430.299 -76.818)"/>
        </g>
        <path id="Path_368" data-name="Path 368" class="cls-16" d="M8.736-2.574A4.229,4.229,0,0,1,4.524-5.018L15.158-7.1a6.693,6.693,0,0,0-7.02-6.942,6.884,6.884,0,0,0-7.15,7.1C.988-2.808,4,.182,8.658.182a7.33,7.33,0,0,0,5.332-2c-.061.071.01-.027,3.385-3.387v-3.4L12.221-3.815A4.823,4.823,0,0,1,8.736-2.574Zm-.6-8.866a3.8,3.8,0,0,1,3.848,2.834L4.134-7.1v-.026C4.134-9.776,5.772-11.44,8.138-11.44ZM24.648.182a6.482,6.482,0,0,0,5.865-3.131c-.078.144-.006.014.063-.119l-2.5-1.456A3.929,3.929,0,0,1,24.622-2.6,4.061,4.061,0,0,1,20.41-6.942a4.075,4.075,0,0,1,4.212-4.342A3.929,3.929,0,0,1,28.08-9.36l2.5-1.456c-1.066-2.106-3.224-3.224-5.928-3.224-4.394,0-7.514,2.938-7.514,7.1S20.254.182,24.648.182Zm13.182,0a5.6,5.6,0,0,0,1.95-.338l-.156-2.6a2.884,2.884,0,0,1-1.17.26c-1.3,0-1.95-.728-1.95-2.08V-19.292h-3.25v14.95C33.254-1.456,34.944.182,37.83.182Zm5.8-16.354a2,2,0,0,0,2.08-2.028,1.935,1.935,0,0,0-2.08-1.872,1.98,1.98,0,0,0-2.08,1.95A1.98,1.98,0,0,0,43.628-16.172ZM41.99,0h3.25V-13.884H41.99ZM57.2-14.04a5.725,5.725,0,0,0-4.6,1.976v-1.82H49.5V5.044h3.25V-1.69A5.7,5.7,0,0,0,57.2.182a6.763,6.763,0,0,0,7.046-7.124A6.756,6.756,0,0,0,57.2-14.04ZM56.836-2.6A4.058,4.058,0,0,1,52.7-6.942a4.058,4.058,0,0,1,4.134-4.342,4.038,4.038,0,0,1,4.108,4.342A4.038,4.038,0,0,1,56.836-2.6ZM71.63.182c3.9,0,6.292-1.69,6.292-4.29,0-5.434-8.58-2.938-8.58-5.746,0-.91.936-1.56,2.912-1.56a7.6,7.6,0,0,1,3.978,1.04l1.248-2.47a11.05,11.05,0,0,0-5.2-1.2c-3.744,0-6.11,1.716-6.11,4.342,0,5.538,8.58,3.042,8.58,5.694,0,.962-.858,1.534-2.912,1.534A9.342,9.342,0,0,1,67-3.848l-1.248,2.47A11.031,11.031,0,0,0,71.63.182Zm15.7-2.756a4.229,4.229,0,0,1-4.212-2.444L93.756-7.1a6.693,6.693,0,0,0-7.02-6.942,6.884,6.884,0,0,0-7.15,7.1c0,4.134,3.016,7.124,7.67,7.124A6.945,6.945,0,0,0,92.82-2.08l-1.716-2A5.015,5.015,0,0,1,87.334-2.574Zm-.6-8.866a3.8,3.8,0,0,1,3.848,2.834L82.732-7.1v-.026C82.732-9.776,84.37-11.44,86.736-11.44Zm11.778-4.732a2,2,0,0,0,2.08-2.028,1.935,1.935,0,0,0-2.08-1.872,1.98,1.98,0,0,0-2.08,1.95A1.98,1.98,0,0,0,98.514-16.172ZM96.876,0h3.25V-13.884h-3.25ZM110.76.182a6.312,6.312,0,0,0,5.928-3.25l-2.5-1.456A3.929,3.929,0,0,1,110.734-2.6a4.061,4.061,0,0,1-4.212-4.342,4.075,4.075,0,0,1,4.212-4.342,3.929,3.929,0,0,1,3.458,1.924l2.5-1.456c-1.066-2.106-3.224-3.224-5.928-3.224-4.394,0-7.514,2.938-7.514,7.1S106.366.182,110.76.182Zm14.768,0c4.316,0,7.41-2.964,7.41-7.124s-3.094-7.1-7.41-7.1c-4.264,0-7.384,2.938-7.384,7.1A7.009,7.009,0,0,0,125.528.182Zm0-2.782a4.038,4.038,0,0,1-4.108-4.342,4.038,4.038,0,0,1,4.108-4.342,4.044,4.044,0,0,1,4.134,4.342A4.044,4.044,0,0,1,125.528-2.6Z" transform="translate(172 31)"/>
        <g id="Rectangle_148" data-name="Rectangle 148" class="cls-17" transform="translate(134 -3)">
          <rect class="cls-21" width="25" height="10" rx="5"/>
          <rect class="cls-1" x="0.5" y="0.5" width="24" height="9" rx="4.5"/>
        </g>
        <text id="v_1.0.0" data-name="v 1.0.0" class="cls-18" transform="translate(139 4)"><tspan x="0" y="0">v 1.0.0</tspan></text>
      </g>
      <path id="Path_367" data-name="Path 367" class="cls-19" d="M17.923.107s-3.718.7-9.146,4.32a14.692,14.692,0,0,0-6.289,9.088" transform="translate(104.5 0.5)"/>
      <line id="Line_39" data-name="Line 39" class="cls-20" x2="4" transform="translate(126.5 0.5)"/>
    </g>
  </g>
</svg>
