<svg xmlns="http://www.w3.org/2000/svg" xmlns:xlink="http://www.w3.org/1999/xlink" viewBox="0 0 204.688 59.756"><defs><style>.a{clip-path:url(#a);}.b{fill:url(#b);}.c{fill:url(#d);}.d{fill:url(#g);}.e{fill:url(#h);}.f{fill:url(#i);}.g{fill:url(#j);}.h{fill:url(#l);}.i{fill:url(#m);}.j{fill:url(#o);}.k{fill:url(#r);}.l{fill:url(#s);}.m{fill:url(#t);}.n{fill:url(#u);}.o,.p,.t{fill:none;}.o{stroke:rgba(255,255,255,0.95);}.o,.p{stroke-linecap:round;stroke-width:2px;}.p,.q{stroke:#fff;}.q{fill:url(#v);}.r{fill:#fff;font-size:5px;font-family:Helvetica;}.s{stroke:none;}</style><clipPath id="a"><circle cx="27.081" cy="27.081" r="27.081"/></clipPath><linearGradient id="b" x1="0.5" y1="1" x2="0.5" gradientUnits="objectBoundingBox"><stop offset="0" stop-color="#170728" stop-opacity="0"/><stop offset="0.187" stop-color="#008cf0" stop-opacity="0.039"/><stop offset="0.438" stop-color="#008cf0" stop-opacity="0.149"/><stop offset="0.725" stop-color="#008cf0" stop-opacity="0.2"/><stop offset="1" stop-color="#008cf0" stop-opacity="0.278"/></linearGradient><linearGradient id="d" x1="0.5" y1="1" x2="0.5" gradientUnits="objectBoundingBox"><stop offset="0" stop-color="#0fb"/><stop offset="0.151" stop-color="#00f9be"/><stop offset="0.356" stop-color="#00e8c8"/><stop offset="0.589" stop-color="#00ccd9"/><stop offset="0.844" stop-color="#00a5ef"/><stop offset="1" stop-color="#0089ff"/></linearGradient><linearGradient id="g" x1="0.5" y1="1" x2="0.5" gradientUnits="objectBoundingBox"><stop offset="0" stop-color="#fff" stop-opacity="0.102"/><stop offset="0.033" stop-color="#fff" stop-opacity="0.102"/><stop offset="0.89" stop-color="#fff" stop-opacity="0.012"/><stop offset="1" stop-color="#fff" stop-opacity="0"/></linearGradient><linearGradient id="h" x1="0.495" y1="1" x2="0.495" gradientUnits="objectBoundingBox"><stop offset="0" stop-color="#fff" stop-opacity="0"/><stop offset="1" stop-color="#fff" stop-opacity="0.2"/></linearGradient><linearGradient id="i" x1="0.497" x2="0.497" xlink:href="#h"/><linearGradient id="j" x1="0.496" x2="0.496" xlink:href="#h"/><linearGradient id="l" x1="0.497" x2="0.497" xlink:href="#h"/><linearGradient id="m" x1="0.498" x2="0.498" xlink:href="#h"/><linearGradient id="o" x1="0.497" x2="0.497" xlink:href="#h"/><linearGradient id="r" x1="1.64" y1="0.577" x2="0.338" y2="-0.486" gradientUnits="objectBoundingBox"><stop offset="0" stop-color="#fff" stop-opacity="0"/><stop offset="1" stop-color="#fff" stop-opacity="0.09"/></linearGradient><linearGradient id="s" x1="1.807" y1="2.008" x2="0.34" y2="0.841" gradientUnits="objectBoundingBox"><stop offset="0" stop-color="#fff" stop-opacity="0"/><stop offset="1" stop-color="#fff" stop-opacity="0.031"/></linearGradient><linearGradient id="t" x1="0.732" y1="3.17" x2="-0.833" y2="1.944" xlink:href="#r"/><linearGradient id="u" x1="0.805" y1="2.843" x2="-0.13" y2="2.039" gradientUnits="objectBoundingBox"><stop offset="0" stop-color="#fff" stop-opacity="0"/><stop offset="1" stop-color="#fff" stop-opacity="0.051"/></linearGradient><linearGradient id="v" x1="1.069" y1="-0.133" x2="-0.186" y2="1.302" gradientUnits="objectBoundingBox"><stop offset="0" stop-color="#ff7900"/><stop offset="1" stop-color="#ffbe00"/></linearGradient></defs><g transform="translate(-108.25 -14.5)"><g transform="translate(-87.247 20)"><g transform="translate(195.498 0.093)"><g class="a" transform="translate(0)"><circle class="b" cx="27.081" cy="27.081" r="27.081"/></g><g class="a" transform="translate(0)"><path class="c" d="M44.875,260.8a33.985,33.985,0,0,1,17.868,4.839c6.877,4.132,7.212,7.92,12.1,9.12,9.53,2.345,17.077-9.883,20.66-7.817,4.588,2.643,2.075,28.449-13.959,39.831-21.767,15.448-62.473.121-65.33-16.751C14.21,278.258,29.891,261.441,44.875,260.8Z" transform="translate(-40.221 -236.603)"/></g><g class="a" transform="translate(0)"><path class="c" d="M28.875,352.8a33.984,33.984,0,0,1,17.868,4.839c6.877,4.132,7.212,7.92,12.1,9.12,9.53,2.345,17.077-9.883,20.66-7.817,4.588,2.643,2.075,28.449-13.959,39.831-21.767,15.448-62.473.121-65.33-16.751C-1.79,370.258,13.891,353.441,28.875,352.8Z" transform="translate(-25.71 -320.041)"/></g></g><path class="d" d="M567.68,27.081A27.083,27.083,0,0,1,540.6,54.163c-.912,0-1.815-.047-2.7-.13a27.086,27.086,0,0,0,0-53.9A25.822,25.822,0,0,1,540.6,0,27.083,27.083,0,0,1,567.68,27.081Z" transform="translate(-318.02)"/><circle class="e" cx="0.419" cy="0.419" r="0.419" transform="translate(196.614 26.523)"/><circle class="f" cx="0.698" cy="0.698" r="0.698" transform="translate(200.43 30.059)"/><circle class="g" cx="0.605" cy="0.605" r="0.605" transform="translate(205.921 27.919)"/><circle class="g" cx="0.605" cy="0.605" r="0.605" transform="translate(212.807 31.176)"/><circle class="h" cx="0.791" cy="0.791" r="0.791" transform="translate(212.435 41.134)"/><circle class="i" cx="1.163" cy="1.163" r="1.163" transform="translate(219.136 48.114)"/><circle class="h" cx="0.791" cy="0.791" r="0.791" transform="translate(226.767 44.019)"/><circle class="j" cx="0.884" cy="0.884" r="0.884" transform="translate(235.329 38.807)"/><circle class="h" cx="0.791" cy="0.791" r="0.791" transform="translate(203.966 34.154)"/><circle class="i" cx="1.163" cy="1.163" r="1.163" transform="translate(221.462 35.271)"/><path class="k" d="M418.286,48.21l-5.118,1.945a.42.42,0,0,1-.54-.242h0a.42.42,0,0,1,.242-.54l5.118-1.945a.42.42,0,0,1,.54.242h0A.42.42,0,0,1,418.286,48.21Z" transform="translate(-204.381 -42.989)"/><path class="l" d="M527.716,36.91,523.268,38.6a.42.42,0,0,1-.54-.242h0a.42.42,0,0,1,.242-.54l4.448-1.694a.42.42,0,0,1,.54.242h0A.42.42,0,0,1,527.716,36.91Z" transform="translate(-304.234 -32.74)"/><path class="m" d="M609.481,44.51l-4.113,1.573a.42.42,0,0,1-.54-.242h0a.42.42,0,0,1,.242-.54l4.113-1.573a.42.42,0,0,1,.54.242h0A.42.42,0,0,1,609.481,44.51Z" transform="translate(-378.694 -39.633)"/><path class="n" d="M669.741,85.51l-7.473,2.848a.42.42,0,0,1-.54-.242h0a.42.42,0,0,1,.242-.54l7.473-2.848a.42.42,0,0,1,.54.242h0A.42.42,0,0,1,669.741,85.51Z" transform="translate(-430.299 -76.818)"/></g><path d="M8.736-2.574A4.229,4.229,0,0,1,4.524-5.018L15.158-7.1a6.693,6.693,0,0,0-7.02-6.942,6.884,6.884,0,0,0-7.15,7.1C.988-2.808,4,.182,8.658.182a7.33,7.33,0,0,0,5.332-2c-.061.071.01-.027,3.385-3.387v-3.4L12.221-3.815A4.823,4.823,0,0,1,8.736-2.574Zm-.6-8.866a3.8,3.8,0,0,1,3.848,2.834L4.134-7.1v-.026C4.134-9.776,5.772-11.44,8.138-11.44ZM24.648.182a6.482,6.482,0,0,0,5.865-3.131c-.078.144-.006.014.063-.119l-2.5-1.456A3.929,3.929,0,0,1,24.622-2.6,4.061,4.061,0,0,1,20.41-6.942a4.075,4.075,0,0,1,4.212-4.342A3.929,3.929,0,0,1,28.08-9.36l2.5-1.456c-1.066-2.106-3.224-3.224-5.928-3.224-4.394,0-7.514,2.938-7.514,7.1S20.254.182,24.648.182Zm13.182,0a5.6,5.6,0,0,0,1.95-.338l-.156-2.6a2.884,2.884,0,0,1-1.17.26c-1.3,0-1.95-.728-1.95-2.08V-19.292h-3.25v14.95C33.254-1.456,34.944.182,37.83.182Zm5.8-16.354a2,2,0,0,0,2.08-2.028,1.935,1.935,0,0,0-2.08-1.872,1.98,1.98,0,0,0-2.08,1.95A1.98,1.98,0,0,0,43.628-16.172ZM41.99,0h3.25V-13.884H41.99ZM57.2-14.04a5.725,5.725,0,0,0-4.6,1.976v-1.82H49.5V5.044h3.25V-1.69A5.7,5.7,0,0,0,57.2.182a6.763,6.763,0,0,0,7.046-7.124A6.756,6.756,0,0,0,57.2-14.04ZM56.836-2.6A4.058,4.058,0,0,1,52.7-6.942a4.058,4.058,0,0,1,4.134-4.342,4.038,4.038,0,0,1,4.108,4.342A4.038,4.038,0,0,1,56.836-2.6ZM71.63.182c3.9,0,6.292-1.69,6.292-4.29,0-5.434-8.58-2.938-8.58-5.746,0-.91.936-1.56,2.912-1.56a7.6,7.6,0,0,1,3.978,1.04l1.248-2.47a11.05,11.05,0,0,0-5.2-1.2c-3.744,0-6.11,1.716-6.11,4.342,0,5.538,8.58,3.042,8.58,5.694,0,.962-.858,1.534-2.912,1.534A9.342,9.342,0,0,1,67-3.848l-1.248,2.47A11.031,11.031,0,0,0,71.63.182Zm15.7-2.756a4.229,4.229,0,0,1-4.212-2.444L93.756-7.1a6.693,6.693,0,0,0-7.02-6.942,6.884,6.884,0,0,0-7.15,7.1c0,4.134,3.016,7.124,7.67,7.124A6.945,6.945,0,0,0,92.82-2.08l-1.716-2A5.015,5.015,0,0,1,87.334-2.574Zm-.6-8.866a3.8,3.8,0,0,1,3.848,2.834L82.732-7.1v-.026C82.732-9.776,84.37-11.44,86.736-11.44Zm11.778-4.732a2,2,0,0,0,2.08-2.028,1.935,1.935,0,0,0-2.08-1.872,1.98,1.98,0,0,0-2.08,1.95A1.98,1.98,0,0,0,98.514-16.172ZM96.876,0h3.25V-13.884h-3.25ZM110.76.182a6.312,6.312,0,0,0,5.928-3.25l-2.5-1.456A3.929,3.929,0,0,1,110.734-2.6a4.061,4.061,0,0,1-4.212-4.342,4.075,4.075,0,0,1,4.212-4.342,3.929,3.929,0,0,1,3.458,1.924l2.5-1.456c-1.066-2.106-3.224-3.224-5.928-3.224-4.394,0-7.514,2.938-7.514,7.1S106.366.182,110.76.182Zm14.768,0c4.316,0,7.41-2.964,7.41-7.124s-3.094-7.1-7.41-7.1c-4.264,0-7.384,2.938-7.384,7.1A7.009,7.009,0,0,0,125.528.182Zm0-2.782a4.038,4.038,0,0,1-4.108-4.342,4.038,4.038,0,0,1,4.108-4.342,4.044,4.044,0,0,1,4.134,4.342A4.044,4.044,0,0,1,125.528-2.6Z" transform="translate(180 56)"/><path class="o" d="M17.923.107A33.96,33.96,0,0,0,7.318,3.35,24,24,0,0,0,0,10" transform="translate(115.5 15.5)"/><line class="p" x2="4" transform="translate(137.5 15.5)"/><g class="q" transform="translate(142 22)"><rect class="s" width="25" height="10" rx="5"/><rect class="t" x="0.5" y="0.5" width="24" height="9" rx="4.5"/></g><text class="r" transform="translate(147 29)"><tspan x="0" y="0">v 1.0.0</tspan></text></g></svg>