<svg xmlns="http://www.w3.org/2000/svg" viewBox="0 0 45.905 45.901">
  <defs>
    <style>
      .cls-1 {
        fill: #ff7900;
      }
    </style>
  </defs>
  <g id="telephone" transform="translate(-1 -0.016)">
    <g id="Group_146" data-name="Group 146" transform="translate(1 0.016)">
      <g id="Group_145" data-name="Group 145" transform="translate(0 0)">
        <path id="Path_306" data-name="Path 306" class="cls-1" d="M2.022,14.388a2.3,2.3,0,0,0,2.235,1.694,2.352,2.352,0,0,0,.448-.043l4.636-.889,3.567-.783a2.258,2.258,0,0,0,1.844-2.483l-.435-3.338c-.054-.415.9-.876,1.786-1.01A49.478,49.478,0,0,1,31.653,7.5c1.416.244,1.729.471,1.8.556a1.7,1.7,0,0,1,.059,1.1L33.2,11.378a2.711,2.711,0,0,0,.345,2.1A3.316,3.316,0,0,0,35.651,14.5c.535.1.948.206,1.36.306.438.109.874.217,1.444.326l4.144.8a3.24,3.24,0,0,0,2.186-.127,2.814,2.814,0,0,0,1.278-2.11l.025-.111c.08-.353.187-.7.293-1.054a8.2,8.2,0,0,0,.483-2.618,6.134,6.134,0,0,0-2.026-4.092c-5.3-5.2-14.459-5.8-20.885-5.8C9.283.016,3.693,4.239,1.586,7.782a4.227,4.227,0,0,0-.441,3.251ZM2.9,8.565c1.9-3.2,7.1-7.019,21.053-7.019,6.161,0,14.918.556,19.814,5.362a4.636,4.636,0,0,1,1.564,3.042,6.932,6.932,0,0,1-.419,2.133c-.116.383-.23.769-.32,1.157l-.027.116c-.128.569-.23.952-.492,1.089a2.12,2.12,0,0,1-1.187-.021l-4.144-.791c-.535-.1-.949-.206-1.362-.306-.438-.109-.874-.217-1.442-.326-.366-.07-.981-.187-1.176-.445a1.48,1.48,0,0,1-.049-.961l.313-2.219a2.953,2.953,0,0,0-.321-2.2,4.3,4.3,0,0,0-2.789-1.193,51.016,51.016,0,0,0-16.039.035C14.2,6.277,12.6,7.217,12.8,8.744l.436,3.337a.735.735,0,0,1-.634.788l-3.568.783-4.618.884A.779.779,0,0,1,3.5,14L2.627,10.65A2.711,2.711,0,0,1,2.9,8.565Z" transform="translate(-1 -0.016)"/>
        <path id="Path_307" data-name="Path 307" class="cls-1" d="M46.8,167c-.008-.02-.015-.039-.024-.057a2.337,2.337,0,0,0-.285-.535l-9.724-13.2a3.073,3.073,0,0,0-2.464-1.245H32.311l-.676-5.411a1.53,1.53,0,0,0-1.53-1.474h-2.3a1.53,1.53,0,0,0-1.53,1.53v6.12a.765.765,0,1,0,1.53,0v-6.12h2.3a.657.657,0,0,0,.006.095l.765,6.12a.765.765,0,0,0,.759.67H34.3a1.536,1.536,0,0,1,1.232.622L44.656,166.5H38.52a.765.765,0,1,0,0,1.53h6.885v6.12a2.3,2.3,0,0,1-2.3,2.3H4.859a2.3,2.3,0,0,1-2.3-2.3v-6.12H34.7a.765.765,0,1,0,0-1.53H3.313l9.124-12.383a1.535,1.535,0,0,1,1.232-.622h2.665a.765.765,0,0,0,.759-.67l.765-6.12a.659.659,0,0,0,.006-.095h2.3v6.12a.765.765,0,0,0,.765.765h3.06a.765.765,0,1,0,0-1.53h-2.3v-5.355a1.53,1.53,0,0,0-1.53-1.53h-2.3a1.53,1.53,0,0,0-1.53,1.474l-.676,5.411H13.67a3.072,3.072,0,0,0-2.461,1.245l-9.728,13.2a2.277,2.277,0,0,0-.285.535c-.008.017-.016.036-.024.055a2.3,2.3,0,0,0-.138.77v6.383a3.83,3.83,0,0,0,3.825,3.825H43.11a3.83,3.83,0,0,0,3.825-3.825v-6.383A2.3,2.3,0,0,0,46.8,167Z" transform="translate(-1.031 -132.078)"/>
        <path id="Path_308" data-name="Path 308" class="cls-1" d="M170.817,275.262v-.976c0-.689-.658-1.2-1.53-1.2H164.7c-.872,0-1.53.516-1.53,1.2v.874a.765.765,0,0,0,1.53,0v-.546h4.59v.561l-.037.027-5.344,3.391a1.084,1.084,0,0,0-.513,1.224,1.468,1.468,0,0,0,1.492.918h5.167a.765.765,0,0,0,0-1.53H165.8l4.27-2.711A1.478,1.478,0,0,0,170.817,275.262Z" transform="translate(-148.629 -248.603)"/>
        <path id="Path_309" data-name="Path 309" class="cls-1" d="M275.465,273.275a.765.765,0,0,0-1.079.071l-3.272,3.739a1.037,1.037,0,0,0-.178,1.124,1.511,1.511,0,0,0,1.438.777h3.352v.984a.765.765,0,1,0,1.53,0v-.984h.765a.765.765,0,0,0,0-1.53h-.765v-1.224a.765.765,0,1,0-1.53,0v1.224h-2.907l2.714-3.1A.765.765,0,0,0,275.465,273.275Z" transform="translate(-246.652 -248.604)"/>
      </g>
    </g>
  </g>
</svg>
